<?xml version="1.0" encoding="UTF-8" standalone="no"?>
<!-- Created with Inkscape (http://www.inkscape.org/) -->

<svg
   xmlns:dc="http://purl.org/dc/elements/1.1/"
   xmlns:cc="http://creativecommons.org/ns#"
   xmlns:rdf="http://www.w3.org/1999/02/22-rdf-syntax-ns#"
   xmlns:svg="http://www.w3.org/2000/svg"
   xmlns="http://www.w3.org/2000/svg"
   xmlns:sodipodi="http://sodipodi.sourceforge.net/DTD/sodipodi-0.dtd"
   xmlns:inkscape="http://www.inkscape.org/namespaces/inkscape"
   width="127.66934mm"
   height="52.696148mm"
   viewBox="0 0 127.66934 52.696148"
   version="1.1"
   id="svg4801"
   inkscape:version="0.92.2 (5c3e80d, 2017-08-06)"
   sodipodi:docname="jesdavpet-logo-source.svg">
  <defs
     id="defs4795">
    <clipPath
       clipPathUnits="userSpaceOnUse"
       id="clipPath5012">
      <rect
         style="fill:#000000;stroke-width:0.26458332"
         id="rect5014"
         width="38.298405"
         height="60.159168"
         x="0"
         y="312.07568"
         rx="1.5957677" />
    </clipPath>
    <clipPath
       clipPathUnits="userSpaceOnUse"
       id="clipPath5016">
      <rect
         style="fill:#000000;stroke-width:0.26458332"
         id="rect5018"
         width="38.298405"
         height="60.159168"
         x="0"
         y="312.07568"
         rx="1.5957677" />
    </clipPath>
    <clipPath
       clipPathUnits="userSpaceOnUse"
       id="clipPath5020">
      <rect
         style="fill:#000000;stroke-width:0.26458332"
         id="rect5022"
         width="38.298405"
         height="60.159168"
         x="0"
         y="312.07568"
         rx="1.5957677" />
    </clipPath>
  </defs>
  <sodipodi:namedview
     id="base"
     pagecolor="#ffffff"
     bordercolor="#666666"
     borderopacity="1.0"
     inkscape:pageopacity="0.0"
     inkscape:pageshadow="2"
     inkscape:zoom="2.4700001"
     inkscape:cx="218.98593"
     inkscape:cy="85.82975"
     inkscape:document-units="mm"
     inkscape:current-layer="g5120"
     showgrid="false"
     inkscape:pagecheckerboard="true"
     objecttolerance="30"
     showguides="false"
     inkscape:guide-bbox="true"
     inkscape:lockguides="false"
     inkscape:window-width="1920"
     inkscape:window-height="1051"
     inkscape:window-x="-9"
     inkscape:window-y="-9"
     inkscape:window-maximized="1">
    <inkscape:grid
       type="xygrid"
       id="grid4803"
       empspacing="5"
       dotted="false"
       originx="0"
       originy="-3.8146972e-006" />
    <sodipodi:guide
       position="-4.9999998,-3.8146973e-006"
       orientation="0,1"
       id="guide4805"
       inkscape:locked="false" />
    <sodipodi:guide
       position="0,2.9999962"
       orientation="1,0"
       id="guide4807"
       inkscape:locked="false" />
    <sodipodi:guide
       position="2.9999999,0.99999617"
       orientation="1,0"
       id="guide4809"
       inkscape:locked="false" />
    <sodipodi:guide
       position="15,4.9999962"
       orientation="1,0"
       id="guide4811"
       inkscape:locked="false" />
    <sodipodi:guide
       position="18,7.9999963"
       orientation="1,0"
       id="guide4813"
       inkscape:locked="false" />
    <sodipodi:guide
       position="29.999999,5.9999963"
       orientation="1,0"
       id="guide4815"
       inkscape:locked="false" />
    <sodipodi:guide
       position="32.999999,1.9999963"
       orientation="1,0"
       id="guide4817"
       inkscape:locked="false" />
    <sodipodi:guide
       position="44.999999,9.999996"
       orientation="1,0"
       id="guide4819"
       inkscape:locked="false" />
    <sodipodi:guide
       position="47.999998,0.99999617"
       orientation="1,0"
       id="guide4821"
       inkscape:locked="false" />
    <sodipodi:guide
       position="-8.9999997,29.999997"
       orientation="0,1"
       id="guide4829"
       inkscape:locked="false" />
    <sodipodi:guide
       position="-4.9999998,32.999997"
       orientation="0,1"
       id="guide4831"
       inkscape:locked="false" />
    <sodipodi:guide
       position="-6.9999997,44.999997"
       orientation="0,1"
       id="guide4833"
       inkscape:locked="false" />
    <sodipodi:guide
       position="-5.9999998,47.999997"
       orientation="0,1"
       id="guide4835"
       inkscape:locked="false" />
    <sodipodi:guide
       position="50.999998,38.999997"
       orientation="1,0"
       id="guide4837"
       inkscape:locked="false" />
    <sodipodi:guide
       position="62.999998,36.999997"
       orientation="1,0"
       id="guide4839"
       inkscape:locked="false" />
    <sodipodi:guide
       position="65.999997,35.999997"
       orientation="1,0"
       id="guide4841"
       inkscape:locked="false" />
    <sodipodi:guide
       position="80.999997,38.999997"
       orientation="1,0"
       id="guide4843"
       inkscape:locked="false" />
    <sodipodi:guide
       position="77.999997,34.999997"
       orientation="1,0"
       id="guide4845"
       inkscape:locked="false" />
    <sodipodi:guide
       position="92.999997,36.999997"
       orientation="1,0"
       id="guide4847"
       inkscape:locked="false" />
    <sodipodi:guide
       position="95.999997,34.999997"
       orientation="1,0"
       id="guide4849"
       inkscape:locked="false" />
    <sodipodi:guide
       position="108,32.999997"
       orientation="1,0"
       id="guide4851"
       inkscape:locked="false" />
    <sodipodi:guide
       position="111,30.999997"
       orientation="1,0"
       id="guide4853"
       inkscape:locked="false" />
    <sodipodi:guide
       position="123,31.999997"
       orientation="1,0"
       id="guide4855"
       inkscape:locked="false" />
    <sodipodi:guide
       position="-59.686585,64.988692"
       orientation="0,1"
       id="guide5096"
       inkscape:locked="false" />
    <sodipodi:guide
       position="32.999998,37.114753"
       orientation="0,1"
       id="guide5098"
       inkscape:locked="false" />
  </sodipodi:namedview>
  <metadata
     id="metadata4798">
    <rdf:RDF>
      <cc:Work
         rdf:about="">
        <dc:format>image/svg+xml</dc:format>
        <dc:type
           rdf:resource="http://purl.org/dc/dcmitype/StillImage" />
        <dc:title />
      </cc:Work>
    </rdf:RDF>
  </metadata>
  <g
     style="display:none"
     id="g5187"
     inkscape:groupmode="layer"
     inkscape:label="Box"
     transform="translate(0,-244.30385)"
     sodipodi:insensitive="true">
    <rect
       rx="2.1956742"
       y="244.30385"
       x="0"
       height="52.696148"
       width="52.696148"
       id="rect5167"
       style="fill:#000000;stroke-width:0.29046923" />
  </g>
  <g
     inkscape:label="Logo"
     inkscape:groupmode="layer"
     id="layer1"
     style="display:inline"
     transform="translate(0,-244.30385)"
     sodipodi:insensitive="true">
    <path
       style="fill:#000000;stroke-width:1.09783649"
       d="M 8.2988281,923.35352 C 3.7013976,923.35352 0,927.05491 0,931.65234 v 182.56836 c 0,4.5974 3.7013976,8.2988 8.2988281,8.2988 H 190.86719 c 4.59743,0 8.29883,-3.7014 8.29883,-8.2988 V 931.65234 c 0,-4.59743 -3.7014,-8.29882 -8.29883,-8.29882 z m 37.5429689,16.29492 c 0.737847,0 1.390844,0.29296 1.955078,0.8789 0.564238,0.58594 0.841797,1.24654 0.841797,1.98438 v 32.12695 c 0,2.30034 -0.830945,4.25541 -2.501953,5.86133 -1.671005,1.60588 -3.595489,2.40625 -5.765625,2.40625 h -5.529297 c -2.278646,0 -4.233724,-0.80793 -5.861328,-2.43555 -1.605903,-1.62761 -2.41211,-3.57508 -2.41211,-5.83203 v -8.66015 c 0,-0.75958 0.260417,-1.39712 0.78125,-1.91797 0.542535,-0.54255 1.197483,-0.81254 1.957032,-0.8125 0.759548,-4e-5 1.397135,0.26995 1.917968,0.8125 0.542535,0.52085 0.8125,1.15839 0.8125,1.91797 v 8.72656 c 0,0.73788 0.277778,1.36785 0.820313,1.88867 0.542534,0.52086 1.203125,0.7832 1.984375,0.7832 h 5.529297 c 0.759549,0 1.414495,-0.26234 1.957031,-0.7832 0.564234,-0.54251 0.841797,-1.19554 0.841797,-1.95508 v -32.25976 c 0,-0.75958 0.260416,-1.39715 0.78125,-1.91797 0.520834,-0.54255 1.152778,-0.8125 1.890625,-0.8125 z m 38.296875,0 h 24.802738 c 0.75954,0 1.40668,0.28345 1.94921,0.84765 0.56424,0.54255 0.84961,1.18969 0.84961,1.94922 0,0.73788 -0.28537,1.37737 -0.84961,1.91992 -0.54253,0.54252 -1.18967,0.81836 -1.94921,0.81836 H 89.601562 v 13.31055 h 8.333985 c 0.737847,0 1.383249,0.26999 1.925781,0.8125 0.542532,0.54251 0.812502,1.18794 0.812502,1.92578 0,0.78123 -0.26997,1.43597 -0.812502,1.97852 -0.52083,0.54255 -1.166232,0.82031 -1.925781,0.82031 h -8.333985 v 13.41211 h 19.406248 c 0.73785,0 1.37739,0.26995 1.91992,0.8125 0.54254,0.52082 0.8125,1.1584 0.8125,1.91797 0,0.75957 -0.28537,1.41452 -0.84961,1.95703 -0.54253,0.52086 -1.18967,0.77539 -1.94921,0.77539 H 84.138672 Z m 66.414058,0 h 14.22657 c 1.73611,0 3.37521,0.73916 4.91601,2.21484 1.5625,1.45399 2.34766,3.21548 2.34766,5.29883 0,0.78123 -0.28538,1.44378 -0.84961,1.98633 -0.54253,0.54251 -1.15147,0.82031 -1.82422,0.82031 -0.93316,0 -1.57075,-0.20879 -1.91797,-0.62109 -0.34722,-0.43404 -0.68619,-1.22677 -1.01172,-2.37696 -0.30381,-1.15018 -0.99696,-1.72656 -2.08203,-1.72656 h -13.50781 c -0.65104,0 -0.97461,0.20679 -0.97461,0.61914 0,0.26041 0.1378,0.56883 0.41992,0.91602 l 20.2793,25.93945 c 0.97656,1.2587 1.46875,2.60677 1.46875,4.03906 0,1.62762 -0.60135,3.05796 -1.79492,4.29492 -1.17188,1.23701 -2.4796,1.85352 -3.9336,1.85352 h -14.75 c -1.95312,0 -3.65343,-0.73131 -5.10742,-2.20703 -1.43229,-1.49737 -2.14844,-3.1365 -2.14844,-4.91602 0,-2.03992 0.95356,-3.06445 2.86329,-3.06445 0.73784,0 1.36197,0.26995 1.88281,0.8125 0.52083,0.52082 0.7832,1.14323 0.7832,1.85937 0,0.58591 0.19922,1.07228 0.58984,1.4629 0.41233,0.39065 0.92166,0.58984 1.5293,0.58984 h 13.60352 c 0.58593,0 0.8789,-0.22981 0.8789,-0.68555 0,-0.21694 -0.1378,-0.50231 -0.41992,-0.84961 l -20.25,-25.93945 c -0.95486,-1.23696 -1.43164,-2.58508 -1.43164,-4.03906 0,-1.6927 0.60894,-3.15562 1.82422,-4.39258 1.21528,-1.25866 2.67622,-1.88867 4.39062,-1.88867 z M 26.568359,999.78906 h 10.814453 c 1.410592,0.0227 2.77192,0.47644 4.095704,1.36524 1.345489,0.8898 2.3316,1.9679 2.960937,3.2266 l 5.402344,10.9316 c 1.019962,1.9748 1.537109,4.0371 1.537109,6.1855 0,1.9966 -0.547744,4.0454 -1.632812,6.1504 l -5.431641,10.8067 c -0.694443,1.3889 -1.695965,2.5111 -2.998047,3.3574 -1.302085,0.8247 -2.757378,1.2344 -4.363281,1.2344 H 26.507812 c -0.759548,0 -1.412543,-0.27 -1.955078,-0.8125 -0.520833,-0.5425 -0.783203,-1.1821 -0.783203,-1.9199 0,-0.7596 0.26237,-1.4126 0.783203,-1.9551 0.542535,-0.5642 1.19553,-0.8418 1.955078,-0.8418 h 2.865235 v -32.1992 h -2.804688 c -0.759549,0 -1.406684,-0.27 -1.949218,-0.8125 -0.520834,-0.5643 -0.783203,-1.2268 -0.783203,-1.9864 0,-0.7378 0.262369,-1.3774 0.783203,-1.9199 0.542534,-0.5425 1.189669,-0.81054 1.949218,-0.81054 z m 71.529297,0 c 1.345486,0 2.191844,0.56854 2.539064,1.71874 l 10.91016,37.9961 c 0.0868,0.2821 0.12695,0.5501 0.12695,0.8106 0,0.7595 -0.26237,1.4067 -0.78321,1.9492 -0.52083,0.5208 -1.11436,0.7832 -1.7871,0.7832 -1.43229,0 -2.34766,-0.6626 -2.73829,-1.9864 l -2.20703,-7.4179 H 91.691406 l -2.414062,7.9414 c -0.06511,0.3472 -0.335074,0.6861 -0.8125,1.0117 -0.47743,0.3038 -1.000219,0.4512 -1.564453,0.4512 -0.802953,0 -1.465494,-0.27 -1.986329,-0.8125 -0.52083,-0.5425 -0.77539,-1.2051 -0.77539,-1.9864 0,-0.3254 0.05361,-0.6644 0.162109,-1.0117 l 11.066407,-37.3965 c 0.434029,-1.3672 1.341579,-2.05074 2.730468,-2.05074 z m 49.074224,0 c 0.75954,0 1.39908,0.26804 1.91992,0.81054 0.54253,0.5425 0.8125,1.2051 0.8125,1.9863 v 8.918 l 8.33398,21.2227 8.33399,-21.1563 v -8.9844 c 0,-0.7812 0.26236,-1.4438 0.7832,-1.9863 0.54253,-0.5425 1.18772,-0.81054 1.94726,-0.81054 0.75955,0 1.39909,0.26804 1.91993,0.81054 0.54253,0.5425 0.82031,1.2051 0.82031,1.9863 v 10.0625 l -11.13281,28.3457 c -0.56424,1.3672 -1.45661,2.0528 -2.67188,2.0528 -1.28039,0 -2.18793,-0.6856 -2.73047,-2.0528 l -11.07422,-28.3457 v -10.0625 c 0,-0.7812 0.26238,-1.4438 0.78321,-1.9863 0.54253,-0.5425 1.19553,-0.81054 1.95508,-0.81054 z m -112.330083,5.52934 v 32.2578 h 1.919922 c 1.215278,0 2.122826,-0.5936 2.730469,-1.7871 l 5.404296,-10.7403 c 0.672745,-1.4106 1.011719,-2.5959 1.011719,-3.5508 0,-1.1935 -0.269968,-2.3253 -0.8125,-3.3886 l -5.603515,-11.1309 c -0.585941,-1.1068 -1.539495,-1.6601 -2.863282,-1.6601 z m 63.197265,7.1308 -4.6875,15.6563 h 9.212888 z m -74.136718,47.4785 h 19.40039 c 2.235243,0 4.159723,0.81 5.765625,2.4375 1.627605,1.6277 2.435547,3.5752 2.435547,5.8321 v 10.2519 c 0,2.257 -0.800347,4.189 -2.40625,5.7949 -1.605902,1.606 -3.537977,2.4063 -5.794922,2.4063 H 29.439453 v 13.8047 c 0,0.7595 -0.277778,1.4067 -0.820312,1.9492 -0.520834,0.5209 -1.158421,0.7832 -1.917969,0.7832 -0.78125,0 -1.443793,-0.2623 -1.986328,-0.7832 -0.542535,-0.5425 -0.812501,-1.1897 -0.8125,-1.9492 z m 60.236328,0 h 24.802738 c 0.75954,0 1.40668,0.2776 1.94921,0.8418 0.56424,0.5426 0.84961,1.1975 0.84961,1.9571 0,0.7378 -0.28537,1.3773 -0.84961,1.9199 -0.54253,0.5425 -1.18967,0.8105 -1.94921,0.8105 H 89.601562 v 13.3184 h 8.333985 c 0.737847,0 1.383249,0.268 1.925781,0.8105 0.542532,0.5426 0.812502,1.1821 0.812502,1.92 0,0.7812 -0.26997,1.4437 -0.812502,1.9863 -0.52083,0.5425 -1.166232,0.8105 -1.925781,0.8105 h -8.333985 v 13.4141 h 19.406248 c 0.73785,0 1.37739,0.2758 1.91992,0.8184 0.54254,0.5208 0.8125,1.1603 0.8125,1.9199 0,0.7595 -0.28537,1.4067 -0.84961,1.9492 -0.54253,0.5209 -1.18967,0.7832 -1.94921,0.7832 H 84.138672 Z m 60.169918,0.061 h 27.60157 v 7.4551 c 0,0.7595 -0.26997,1.4145 -0.8125,1.957 -0.54254,0.5208 -1.18208,0.7812 -1.91993,0.7812 -0.75954,0 -1.42014,-0.2758 -1.98437,-0.8183 -0.54253,-0.5426 -0.82031,-1.1821 -0.82031,-1.9199 v -1.9864 h -5.5293 v 34.9981 c 0,0.7595 -0.27583,1.4067 -0.81836,1.9492 -0.54254,0.5209 -1.18207,0.7832 -1.91992,0.7832 -0.78125,0 -1.4438,-0.2623 -1.98633,-0.7832 -0.54254,-0.5425 -0.8125,-1.1897 -0.8125,-1.9492 v -34.9981 h -5.53516 v 1.92 c 0,0.7595 -0.26996,1.4145 -0.8125,1.957 -0.52083,0.5208 -1.16037,0.7812 -1.91992,0.7812 -0.75955,0 -1.41254,-0.2604 -1.95508,-0.7812 -0.52083,-0.5425 -0.77539,-1.1975 -0.77539,-1.957 z m -114.869137,5.4687 v 15.7246 h 13.863281 c 0.737847,0 1.375433,-0.2623 1.917969,-0.7832 0.542532,-0.5425 0.820313,-1.1896 0.820313,-1.9492 v -10.2519 c 0,-0.7596 -0.277781,-1.3991 -0.820313,-1.92 -0.542536,-0.5425 -1.180122,-0.8203 -1.917969,-0.8203 z"
       transform="scale(0.26458333)"
       id="rect5024"
       inkscape:connector-curvature="0" />
    <g
       aria-label="JES DAV PET"
       style="font-style:normal;font-weight:normal;font-size:17.63888931px;line-height:0.875;font-family:sans-serif;letter-spacing:3.96875px;word-spacing:0px;fill:#ffffff;fill-opacity:1;stroke:none;stroke-width:0.26458332"
       id="text5028" />
  </g>
  <g
     style="display:inline"
     id="g5120"
     inkscape:groupmode="layer"
     inkscape:label="Seiderson"
     transform="translate(0,-244.30385)"
     sodipodi:insensitive="true">
    <text
       id="text5116"
       y="260.10703"
       x="54.84565"
       style="font-style:normal;font-weight:normal;font-size:17.63888931px;line-height:0.875;font-family:sans-serif;letter-spacing:3.96875px;word-spacing:0px;display:inline;fill:#000000;fill-opacity:1;stroke:none;stroke-width:0.26458332"
       xml:space="preserve"><tspan
         style="font-style:normal;font-variant:normal;font-weight:normal;font-stretch:normal;font-size:17.63888931px;line-height:0.875;font-family:'OCR A Extended';-inkscape-font-specification:'OCR A Extended';letter-spacing:5.29166651px;fill:#000000;stroke-width:0.26458332"
         y="260.10703"
         x="54.84565"
         id="tspan5110"
         sodipodi:role="line">SE</tspan><tspan
         id="tspan5112"
         style="font-style:normal;font-variant:normal;font-weight:normal;font-stretch:normal;font-size:17.63888931px;line-height:0.875;font-family:'OCR A Extended';-inkscape-font-specification:'OCR A Extended';letter-spacing:5.29166651px;fill:#000000;stroke-width:0.26458332"
         y="276.01889"
         x="54.84565"
         sodipodi:role="line">ID</tspan><tspan
         id="tspan5114"
         style="font-style:normal;font-variant:normal;font-weight:normal;font-stretch:normal;font-size:17.63888931px;line-height:0.875;font-family:'OCR A Extended';-inkscape-font-specification:'OCR A Extended';letter-spacing:5.29166651px;fill:#000000;stroke-width:0.26458332"
         y="291.93079"
         x="54.84565"
         sodipodi:role="line">ERSON</tspan></text>
  </g>
  <g
     inkscape:label="Jesdavpet"
     inkscape:groupmode="layer"
     id="g5142"
     style="display:inline"
     transform="translate(0,-244.30385)"
     sodipodi:insensitive="true">
    <text
       xml:space="preserve"
       style="font-style:normal;font-weight:normal;font-size:17.63888931px;line-height:0.875;font-family:sans-serif;letter-spacing:3.96875px;word-spacing:0px;fill:#ffffff;fill-opacity:1;stroke:none;stroke-width:0.26458332"
       x="4.5411859"
       y="260.06128"
       id="text5130"><tspan
         sodipodi:role="line"
         id="tspan5124"
         x="4.5411859"
         y="260.06128"
         style="font-style:normal;font-variant:normal;font-weight:normal;font-stretch:normal;font-size:17.63888931px;line-height:0.875;font-family:'OCR A Extended';-inkscape-font-specification:'OCR A Extended';letter-spacing:5.29166651px;fill:#ffffff;stroke-width:0.26458332">JES</tspan><tspan
         sodipodi:role="line"
         x="4.5411859"
         y="275.97314"
         style="font-style:normal;font-variant:normal;font-weight:normal;font-stretch:normal;font-size:17.63888931px;line-height:0.875;font-family:'OCR A Extended';-inkscape-font-specification:'OCR A Extended';letter-spacing:5.29166651px;fill:#ffffff;stroke-width:0.26458332"
         id="tspan5126">DAV</tspan><tspan
         sodipodi:role="line"
         x="4.5411859"
         y="291.88504"
         style="font-style:normal;font-variant:normal;font-weight:normal;font-stretch:normal;font-size:17.63888931px;line-height:0.875;font-family:'OCR A Extended';-inkscape-font-specification:'OCR A Extended';letter-spacing:5.29166651px;fill:#ffffff;stroke-width:0.26458332"
         id="tspan5128">PET</tspan></text>
  </g>
  <g
     inkscape:label="JesseDavidPeterson"
     inkscape:groupmode="layer"
     id="g5421"
     style="display:inline"
     transform="translate(0,-244.30385)"
     sodipodi:insensitive="true">
    <text
       xml:space="preserve"
       style="font-style:normal;font-weight:normal;font-size:17.63888931px;line-height:0.875;font-family:sans-serif;letter-spacing:3.96875px;word-spacing:0px;fill:#ffffff;fill-opacity:1;stroke:none;stroke-width:0.26458332"
       x="4.5411859"
       y="260.06128"
       id="text5411"><tspan
         sodipodi:role="line"
         id="tspan5405"
         x="4.5411859"
         y="260.06128"
         style="font-style:normal;font-variant:normal;font-weight:normal;font-stretch:normal;font-size:17.63888931px;line-height:0.875;font-family:'OCR A Extended';-inkscape-font-specification:'OCR A Extended';letter-spacing:5.29166651px;fill:#ffffff;stroke-width:0.26458332">JESSE</tspan><tspan
         sodipodi:role="line"
         x="4.5411859"
         y="275.97314"
         style="font-style:normal;font-variant:normal;font-weight:normal;font-stretch:normal;font-size:17.63888931px;line-height:0.875;font-family:'OCR A Extended';-inkscape-font-specification:'OCR A Extended';letter-spacing:5.29166651px;fill:#ffffff;stroke-width:0.26458332"
         id="tspan5407">DAVID</tspan><tspan
         sodipodi:role="line"
         x="4.5411859"
         y="291.88504"
         style="font-style:normal;font-variant:normal;font-weight:normal;font-stretch:normal;font-size:17.63888931px;line-height:0.875;font-family:'OCR A Extended';-inkscape-font-specification:'OCR A Extended';letter-spacing:5.29166651px;fill:#ffffff;stroke-width:0.26458332"
         id="tspan5409">PETERSON</tspan></text>
  </g>
  <g
     transform="translate(0,-244.30385)"
     sodipodi:insensitive="true"
     style="display:none"
     id="g5441"
     inkscape:groupmode="layer"
     inkscape:label="Source copy">
    <rect
       rx="2.1956742"
       y="244.30385"
       x="0"
       height="52.696148"
       width="52.696148"
       id="rect5423"
       style="fill:#000000;stroke-width:0.29046923" />
    <text
       id="text5431"
       y="260.06128"
       x="4.5411859"
       style="font-style:normal;font-weight:normal;font-size:17.63888931px;line-height:0.875;font-family:sans-serif;letter-spacing:3.96875px;word-spacing:0px;fill:#ffffff;fill-opacity:1;stroke:none;stroke-width:0.26458332"
       xml:space="preserve"><tspan
         style="font-style:normal;font-variant:normal;font-weight:normal;font-stretch:normal;font-size:17.63888931px;line-height:0.875;font-family:'OCR A Extended';-inkscape-font-specification:'OCR A Extended';letter-spacing:5.29166651px;fill:#ffffff;stroke-width:0.26458332"
         y="260.06128"
         x="4.5411859"
         id="tspan5425"
         sodipodi:role="line">JES</tspan><tspan
         id="tspan5427"
         style="font-style:normal;font-variant:normal;font-weight:normal;font-stretch:normal;font-size:17.63888931px;line-height:0.875;font-family:'OCR A Extended';-inkscape-font-specification:'OCR A Extended';letter-spacing:5.29166651px;fill:#ffffff;stroke-width:0.26458332"
         y="275.97314"
         x="4.5411859"
         sodipodi:role="line">DAV</tspan><tspan
         id="tspan5429"
         style="font-style:normal;font-variant:normal;font-weight:normal;font-stretch:normal;font-size:17.63888931px;line-height:0.875;font-family:'OCR A Extended';-inkscape-font-specification:'OCR A Extended';letter-spacing:5.29166651px;fill:#ffffff;stroke-width:0.26458332"
         y="291.88504"
         x="4.5411859"
         sodipodi:role="line">PET</tspan></text>
    <text
       id="text5439"
       y="259.78568"
       x="54.852077"
       style="font-style:normal;font-weight:normal;font-size:17.63888931px;line-height:0.875;font-family:sans-serif;letter-spacing:3.96875px;word-spacing:0px;display:inline;fill:#ffffff;fill-opacity:1;stroke:none;stroke-width:0.26458332"
       xml:space="preserve"><tspan
         style="font-style:normal;font-variant:normal;font-weight:normal;font-stretch:normal;font-size:17.63888931px;line-height:0.875;font-family:'OCR A Extended';-inkscape-font-specification:'OCR A Extended';letter-spacing:5.29166651px;fill:#ffffff;stroke-width:0.26458332"
         y="259.78568"
         x="54.852077"
         id="tspan5433"
         sodipodi:role="line">SE</tspan><tspan
         id="tspan5435"
         style="font-style:normal;font-variant:normal;font-weight:normal;font-stretch:normal;font-size:17.63888931px;line-height:0.875;font-family:'OCR A Extended';-inkscape-font-specification:'OCR A Extended';letter-spacing:5.29166651px;fill:#ffffff;stroke-width:0.26458332"
         y="275.69754"
         x="54.852077"
         sodipodi:role="line">ID</tspan><tspan
         id="tspan5437"
         style="font-style:normal;font-variant:normal;font-weight:normal;font-stretch:normal;font-size:17.63888931px;line-height:0.875;font-family:'OCR A Extended';-inkscape-font-specification:'OCR A Extended';letter-spacing:5.29166651px;fill:#ffffff;stroke-width:0.26458332"
         y="291.60944"
         x="54.852077"
         sodipodi:role="line">ERSON</tspan></text>
  </g>
</svg>
