<?xml version="1.0" encoding="UTF-8" standalone="no"?>
<!-- Created with Inkscape (http://www.inkscape.org/) -->

<svg
   xmlns:dc="http://purl.org/dc/elements/1.1/"
   xmlns:cc="http://creativecommons.org/ns#"
   xmlns:rdf="http://www.w3.org/1999/02/22-rdf-syntax-ns#"
   xmlns:svg="http://www.w3.org/2000/svg"
   xmlns="http://www.w3.org/2000/svg"
   xmlns:sodipodi="http://sodipodi.sourceforge.net/DTD/sodipodi-0.dtd"
   xmlns:inkscape="http://www.inkscape.org/namespaces/inkscape"
   width="127.66934mm"
   height="52.696148mm"
   viewBox="0 0 127.66934 52.696148"
   version="1.1"
   id="svg4801"
   inkscape:version="0.92.2 (5c3e80d, 2017-08-06)"
   sodipodi:docname="jesdavpet.svg">
  <defs
     id="defs4795">
    <clipPath
       clipPathUnits="userSpaceOnUse"
       id="clipPath5012">
      <rect
         style="fill:#000000;stroke-width:0.26458332"
         id="rect5014"
         width="38.298405"
         height="60.159168"
         x="0"
         y="312.07568"
         rx="1.5957677" />
    </clipPath>
    <clipPath
       clipPathUnits="userSpaceOnUse"
       id="clipPath5016">
      <rect
         style="fill:#000000;stroke-width:0.26458332"
         id="rect5018"
         width="38.298405"
         height="60.159168"
         x="0"
         y="312.07568"
         rx="1.5957677" />
    </clipPath>
    <clipPath
       clipPathUnits="userSpaceOnUse"
       id="clipPath5020">
      <rect
         style="fill:#000000;stroke-width:0.26458332"
         id="rect5022"
         width="38.298405"
         height="60.159168"
         x="0"
         y="312.07568"
         rx="1.5957677" />
    </clipPath>
  </defs>
  <sodipodi:namedview
     id="base"
     pagecolor="#ffffff"
     bordercolor="#666666"
     borderopacity="1.0"
     inkscape:pageopacity="0.0"
     inkscape:pageshadow="2"
     inkscape:zoom="2.4700001"
     inkscape:cx="261.35118"
     inkscape:cy="85.82975"
     inkscape:document-units="mm"
     inkscape:current-layer="g5421"
     showgrid="false"
     inkscape:pagecheckerboard="true"
     objecttolerance="30"
     showguides="false"
     inkscape:guide-bbox="true"
     inkscape:lockguides="false"
     inkscape:window-width="1920"
     inkscape:window-height="1051"
     inkscape:window-x="-9"
     inkscape:window-y="-9"
     inkscape:window-maximized="1">
    <inkscape:grid
       type="xygrid"
       id="grid4803"
       empspacing="5"
       dotted="false"
       originx="0"
       originy="-3.8146972e-006" />
    <sodipodi:guide
       position="-4.9999998,-3.8146973e-006"
       orientation="0,1"
       id="guide4805"
       inkscape:locked="false" />
    <sodipodi:guide
       position="0,2.9999962"
       orientation="1,0"
       id="guide4807"
       inkscape:locked="false" />
    <sodipodi:guide
       position="2.9999999,0.99999617"
       orientation="1,0"
       id="guide4809"
       inkscape:locked="false" />
    <sodipodi:guide
       position="15,4.9999962"
       orientation="1,0"
       id="guide4811"
       inkscape:locked="false" />
    <sodipodi:guide
       position="18,7.9999963"
       orientation="1,0"
       id="guide4813"
       inkscape:locked="false" />
    <sodipodi:guide
       position="29.999999,5.9999963"
       orientation="1,0"
       id="guide4815"
       inkscape:locked="false" />
    <sodipodi:guide
       position="32.999999,1.9999963"
       orientation="1,0"
       id="guide4817"
       inkscape:locked="false" />
    <sodipodi:guide
       position="44.999999,9.999996"
       orientation="1,0"
       id="guide4819"
       inkscape:locked="false" />
    <sodipodi:guide
       position="47.999998,0.99999617"
       orientation="1,0"
       id="guide4821"
       inkscape:locked="false" />
    <sodipodi:guide
       position="-8.9999997,29.999997"
       orientation="0,1"
       id="guide4829"
       inkscape:locked="false" />
    <sodipodi:guide
       position="-4.9999998,32.999997"
       orientation="0,1"
       id="guide4831"
       inkscape:locked="false" />
    <sodipodi:guide
       position="-6.9999997,44.999997"
       orientation="0,1"
       id="guide4833"
       inkscape:locked="false" />
    <sodipodi:guide
       position="-5.9999998,47.999997"
       orientation="0,1"
       id="guide4835"
       inkscape:locked="false" />
    <sodipodi:guide
       position="50.999998,38.999997"
       orientation="1,0"
       id="guide4837"
       inkscape:locked="false" />
    <sodipodi:guide
       position="62.999998,36.999997"
       orientation="1,0"
       id="guide4839"
       inkscape:locked="false" />
    <sodipodi:guide
       position="65.999997,35.999997"
       orientation="1,0"
       id="guide4841"
       inkscape:locked="false" />
    <sodipodi:guide
       position="80.999997,38.999997"
       orientation="1,0"
       id="guide4843"
       inkscape:locked="false" />
    <sodipodi:guide
       position="77.999997,34.999997"
       orientation="1,0"
       id="guide4845"
       inkscape:locked="false" />
    <sodipodi:guide
       position="92.999997,36.999997"
       orientation="1,0"
       id="guide4847"
       inkscape:locked="false" />
    <sodipodi:guide
       position="95.999997,34.999997"
       orientation="1,0"
       id="guide4849"
       inkscape:locked="false" />
    <sodipodi:guide
       position="108,32.999997"
       orientation="1,0"
       id="guide4851"
       inkscape:locked="false" />
    <sodipodi:guide
       position="111,30.999997"
       orientation="1,0"
       id="guide4853"
       inkscape:locked="false" />
    <sodipodi:guide
       position="123,31.999997"
       orientation="1,0"
       id="guide4855"
       inkscape:locked="false" />
    <sodipodi:guide
       position="-59.686585,64.988692"
       orientation="0,1"
       id="guide5096"
       inkscape:locked="false" />
    <sodipodi:guide
       position="32.999998,37.114753"
       orientation="0,1"
       id="guide5098"
       inkscape:locked="false" />
  </sodipodi:namedview>
  <metadata
     id="metadata4798">
    <rdf:RDF>
      <cc:Work
         rdf:about="">
        <dc:format>image/svg+xml</dc:format>
        <dc:type
           rdf:resource="http://purl.org/dc/dcmitype/StillImage" />
        <dc:title></dc:title>
      </cc:Work>
    </rdf:RDF>
  </metadata>
  <g
     style="display:none"
     id="g5187"
     inkscape:groupmode="layer"
     inkscape:label="Box"
     transform="translate(0,-244.30385)"
     sodipodi:insensitive="true">
    <rect
       rx="2.1956742"
       y="244.30385"
       x="0"
       height="52.696148"
       width="52.696148"
       id="rect5167"
       style="fill:#000000;stroke-width:0.29046923" />
  </g>
  <g
     inkscape:label="Logo"
     inkscape:groupmode="layer"
     id="layer1"
     style="display:inline"
     transform="translate(0,-244.30385)"
     sodipodi:insensitive="true">
    <path
       style="fill:#000000;stroke-width:1.09783649"
       d="M 8.2988281,923.35352 C 3.7013976,923.35352 0,927.05491 0,931.65234 v 182.56836 c 0,4.5974 3.7013976,8.2988 8.2988281,8.2988 H 190.86719 c 4.59743,0 8.29883,-3.7014 8.29883,-8.2988 V 931.65234 c 0,-4.59743 -3.7014,-8.29882 -8.29883,-8.29882 z m 37.5429689,16.29492 c 0.737847,0 1.390844,0.29296 1.955078,0.8789 0.564238,0.58594 0.841797,1.24654 0.841797,1.98438 v 32.12695 c 0,2.30034 -0.830945,4.25541 -2.501953,5.86133 -1.671005,1.60588 -3.595489,2.40625 -5.765625,2.40625 h -5.529297 c -2.278646,0 -4.233724,-0.80793 -5.861328,-2.43555 -1.605903,-1.62761 -2.41211,-3.57508 -2.41211,-5.83203 v -8.66015 c 0,-0.75958 0.260417,-1.39712 0.78125,-1.91797 0.542535,-0.54255 1.197483,-0.81254 1.957032,-0.8125 0.759548,-4e-5 1.397135,0.26995 1.917968,0.8125 0.542535,0.52085 0.8125,1.15839 0.8125,1.91797 v 8.72656 c 0,0.73788 0.277778,1.36785 0.820313,1.88867 0.542534,0.52086 1.203125,0.7832 1.984375,0.7832 h 5.529297 c 0.759549,0 1.414495,-0.26234 1.957031,-0.7832 0.564234,-0.54251 0.841797,-1.19554 0.841797,-1.95508 v -32.25976 c 0,-0.75958 0.260416,-1.39715 0.78125,-1.91797 0.520834,-0.54255 1.152778,-0.8125 1.890625,-0.8125 z m 38.296875,0 h 24.802738 c 0.75954,0 1.40668,0.28345 1.94921,0.84765 0.56424,0.54255 0.84961,1.18969 0.84961,1.94922 0,0.73788 -0.28537,1.37737 -0.84961,1.91992 -0.54253,0.54252 -1.18967,0.81836 -1.94921,0.81836 H 89.601562 v 13.31055 h 8.333985 c 0.737847,0 1.383249,0.26999 1.925781,0.8125 0.542532,0.54251 0.812502,1.18794 0.812502,1.92578 0,0.78123 -0.26997,1.43597 -0.812502,1.97852 -0.52083,0.54255 -1.166232,0.82031 -1.925781,0.82031 h -8.333985 v 13.41211 h 19.406248 c 0.73785,0 1.37739,0.26995 1.91992,0.8125 0.54254,0.52082 0.8125,1.1584 0.8125,1.91797 0,0.75957 -0.28537,1.41452 -0.84961,1.95703 -0.54253,0.52086 -1.18967,0.77539 -1.94921,0.77539 H 84.138672 Z m 66.414058,0 h 14.22657 c 1.73611,0 3.37521,0.73916 4.91601,2.21484 1.5625,1.45399 2.34766,3.21548 2.34766,5.29883 0,0.78123 -0.28538,1.44378 -0.84961,1.98633 -0.54253,0.54251 -1.15147,0.82031 -1.82422,0.82031 -0.93316,0 -1.57075,-0.20879 -1.91797,-0.62109 -0.34722,-0.43404 -0.68619,-1.22677 -1.01172,-2.37696 -0.30381,-1.15018 -0.99696,-1.72656 -2.08203,-1.72656 h -13.50781 c -0.65104,0 -0.97461,0.20679 -0.97461,0.61914 0,0.26041 0.1378,0.56883 0.41992,0.91602 l 20.2793,25.93945 c 0.97656,1.2587 1.46875,2.60677 1.46875,4.03906 0,1.62762 -0.60135,3.05796 -1.79492,4.29492 -1.17188,1.23701 -2.4796,1.85352 -3.9336,1.85352 h -14.75 c -1.95312,0 -3.65343,-0.73131 -5.10742,-2.20703 -1.43229,-1.49737 -2.14844,-3.1365 -2.14844,-4.91602 0,-2.03992 0.95356,-3.06445 2.86329,-3.06445 0.73784,0 1.36197,0.26995 1.88281,0.8125 0.52083,0.52082 0.7832,1.14323 0.7832,1.85937 0,0.58591 0.19922,1.07228 0.58984,1.4629 0.41233,0.39065 0.92166,0.58984 1.5293,0.58984 h 13.60352 c 0.58593,0 0.8789,-0.22981 0.8789,-0.68555 0,-0.21694 -0.1378,-0.50231 -0.41992,-0.84961 l -20.25,-25.93945 c -0.95486,-1.23696 -1.43164,-2.58508 -1.43164,-4.03906 0,-1.6927 0.60894,-3.15562 1.82422,-4.39258 1.21528,-1.25866 2.67622,-1.88867 4.39062,-1.88867 z M 26.568359,999.78906 h 10.814453 c 1.410592,0.0227 2.77192,0.47644 4.095704,1.36524 1.345489,0.8898 2.3316,1.9679 2.960937,3.2266 l 5.402344,10.9316 c 1.019962,1.9748 1.537109,4.0371 1.537109,6.1855 0,1.9966 -0.547744,4.0454 -1.632812,6.1504 l -5.431641,10.8067 c -0.694443,1.3889 -1.695965,2.5111 -2.998047,3.3574 -1.302085,0.8247 -2.757378,1.2344 -4.363281,1.2344 H 26.507812 c -0.759548,0 -1.412543,-0.27 -1.955078,-0.8125 -0.520833,-0.5425 -0.783203,-1.1821 -0.783203,-1.9199 0,-0.7596 0.26237,-1.4126 0.783203,-1.9551 0.542535,-0.5642 1.19553,-0.8418 1.955078,-0.8418 h 2.865235 v -32.1992 h -2.804688 c -0.759549,0 -1.406684,-0.27 -1.949218,-0.8125 -0.520834,-0.5643 -0.783203,-1.2268 -0.783203,-1.9864 0,-0.7378 0.262369,-1.3774 0.783203,-1.9199 0.542534,-0.5425 1.189669,-0.81054 1.949218,-0.81054 z m 71.529297,0 c 1.345486,0 2.191844,0.56854 2.539064,1.71874 l 10.91016,37.9961 c 0.0868,0.2821 0.12695,0.5501 0.12695,0.8106 0,0.7595 -0.26237,1.4067 -0.78321,1.9492 -0.52083,0.5208 -1.11436,0.7832 -1.7871,0.7832 -1.43229,0 -2.34766,-0.6626 -2.73829,-1.9864 l -2.20703,-7.4179 H 91.691406 l -2.414062,7.9414 c -0.06511,0.3472 -0.335074,0.6861 -0.8125,1.0117 -0.47743,0.3038 -1.000219,0.4512 -1.564453,0.4512 -0.802953,0 -1.465494,-0.27 -1.986329,-0.8125 -0.52083,-0.5425 -0.77539,-1.2051 -0.77539,-1.9864 0,-0.3254 0.05361,-0.6644 0.162109,-1.0117 l 11.066407,-37.3965 c 0.434029,-1.3672 1.341579,-2.05074 2.730468,-2.05074 z m 49.074224,0 c 0.75954,0 1.39908,0.26804 1.91992,0.81054 0.54253,0.5425 0.8125,1.2051 0.8125,1.9863 v 8.918 l 8.33398,21.2227 8.33399,-21.1563 v -8.9844 c 0,-0.7812 0.26236,-1.4438 0.7832,-1.9863 0.54253,-0.5425 1.18772,-0.81054 1.94726,-0.81054 0.75955,0 1.39909,0.26804 1.91993,0.81054 0.54253,0.5425 0.82031,1.2051 0.82031,1.9863 v 10.0625 l -11.13281,28.3457 c -0.56424,1.3672 -1.45661,2.0528 -2.67188,2.0528 -1.28039,0 -2.18793,-0.6856 -2.73047,-2.0528 l -11.07422,-28.3457 v -10.0625 c 0,-0.7812 0.26238,-1.4438 0.78321,-1.9863 0.54253,-0.5425 1.19553,-0.81054 1.95508,-0.81054 z m -112.330083,5.52934 v 32.2578 h 1.919922 c 1.215278,0 2.122826,-0.5936 2.730469,-1.7871 l 5.404296,-10.7403 c 0.672745,-1.4106 1.011719,-2.5959 1.011719,-3.5508 0,-1.1935 -0.269968,-2.3253 -0.8125,-3.3886 l -5.603515,-11.1309 c -0.585941,-1.1068 -1.539495,-1.6601 -2.863282,-1.6601 z m 63.197265,7.1308 -4.6875,15.6563 h 9.212888 z m -74.136718,47.4785 h 19.40039 c 2.235243,0 4.159723,0.81 5.765625,2.4375 1.627605,1.6277 2.435547,3.5752 2.435547,5.8321 v 10.2519 c 0,2.257 -0.800347,4.189 -2.40625,5.7949 -1.605902,1.606 -3.537977,2.4063 -5.794922,2.4063 H 29.439453 v 13.8047 c 0,0.7595 -0.277778,1.4067 -0.820312,1.9492 -0.520834,0.5209 -1.158421,0.7832 -1.917969,0.7832 -0.78125,0 -1.443793,-0.2623 -1.986328,-0.7832 -0.542535,-0.5425 -0.812501,-1.1897 -0.8125,-1.9492 z m 60.236328,0 h 24.802738 c 0.75954,0 1.40668,0.2776 1.94921,0.8418 0.56424,0.5426 0.84961,1.1975 0.84961,1.9571 0,0.7378 -0.28537,1.3773 -0.84961,1.9199 -0.54253,0.5425 -1.18967,0.8105 -1.94921,0.8105 H 89.601562 v 13.3184 h 8.333985 c 0.737847,0 1.383249,0.268 1.925781,0.8105 0.542532,0.5426 0.812502,1.1821 0.812502,1.92 0,0.7812 -0.26997,1.4437 -0.812502,1.9863 -0.52083,0.5425 -1.166232,0.8105 -1.925781,0.8105 h -8.333985 v 13.4141 h 19.406248 c 0.73785,0 1.37739,0.2758 1.91992,0.8184 0.54254,0.5208 0.8125,1.1603 0.8125,1.9199 0,0.7595 -0.28537,1.4067 -0.84961,1.9492 -0.54253,0.5209 -1.18967,0.7832 -1.94921,0.7832 H 84.138672 Z m 60.169918,0.061 h 27.60157 v 7.4551 c 0,0.7595 -0.26997,1.4145 -0.8125,1.957 -0.54254,0.5208 -1.18208,0.7812 -1.91993,0.7812 -0.75954,0 -1.42014,-0.2758 -1.98437,-0.8183 -0.54253,-0.5426 -0.82031,-1.1821 -0.82031,-1.9199 v -1.9864 h -5.5293 v 34.9981 c 0,0.7595 -0.27583,1.4067 -0.81836,1.9492 -0.54254,0.5209 -1.18207,0.7832 -1.91992,0.7832 -0.78125,0 -1.4438,-0.2623 -1.98633,-0.7832 -0.54254,-0.5425 -0.8125,-1.1897 -0.8125,-1.9492 v -34.9981 h -5.53516 v 1.92 c 0,0.7595 -0.26996,1.4145 -0.8125,1.957 -0.52083,0.5208 -1.16037,0.7812 -1.91992,0.7812 -0.75955,0 -1.41254,-0.2604 -1.95508,-0.7812 -0.52083,-0.5425 -0.77539,-1.1975 -0.77539,-1.957 z m -114.869137,5.4687 v 15.7246 h 13.863281 c 0.737847,0 1.375433,-0.2623 1.917969,-0.7832 0.542532,-0.5425 0.820313,-1.1896 0.820313,-1.9492 v -10.2519 c 0,-0.7596 -0.277781,-1.3991 -0.820313,-1.92 -0.542536,-0.5425 -1.180122,-0.8203 -1.917969,-0.8203 z"
       transform="scale(0.26458333)"
       id="rect5024"
       inkscape:connector-curvature="0" />
    <g
       aria-label="JES DAV PET"
       style="font-style:normal;font-weight:normal;font-size:17.63888931px;line-height:0.875;font-family:sans-serif;letter-spacing:3.96875px;word-spacing:0px;fill:#ffffff;fill-opacity:1;stroke:none;stroke-width:0.26458332"
       id="text5028" />
  </g>
  <g
     style="display:inline"
     id="g5120"
     inkscape:groupmode="layer"
     inkscape:label="Seiderson"
     transform="translate(0,-244.30385)"
     sodipodi:insensitive="true">
    <g
       aria-label="SE
ID
ERSON"
       style="font-style:normal;font-weight:normal;font-size:17.63888931px;line-height:0.875;font-family:sans-serif;letter-spacing:3.96875px;word-spacing:0px;display:inline;fill:#000000;fill-opacity:1;stroke:none;stroke-width:0.26458332"
       id="text5116">
      <path
         sodipodi:type="inkscape:offset"
         inkscape:radius="0"
         inkscape:original="M 58.265625 248.66016 C 57.812021 248.66016 57.423105 248.82714 57.101562 249.16016 C 56.780021 249.48744 56.619141 249.87441 56.619141 250.32227 C 56.619141 250.70697 56.745407 251.06335 56.998047 251.39062 L 62.355469 258.25586 C 62.430113 258.34775 62.46875 258.42112 62.46875 258.47852 C 62.46875 258.5991 62.391357 258.66016 62.236328 258.66016 L 58.634766 258.66016 C 58.473994 258.66016 58.339563 258.60921 58.230469 258.50586 C 58.127116 258.40251 58.076172 258.27222 58.076172 258.11719 C 58.076172 257.92771 58.006945 257.76475 57.869141 257.62695 C 57.731337 257.48341 57.564363 257.41211 57.369141 257.41211 C 56.86386 257.41211 56.611328 257.68097 56.611328 258.2207 C 56.611328 258.69153 56.800727 259.1253 57.179688 259.52148 C 57.56439 259.91193 58.014485 260.10742 58.53125 260.10742 L 62.433594 260.10742 C 62.818296 260.10742 63.166504 259.94252 63.476562 259.61523 C 63.792363 259.28795 63.949219 258.90915 63.949219 258.47852 C 63.949219 258.09956 63.820882 257.74514 63.5625 257.41211 L 58.195312 250.54688 C 58.120669 250.45501 58.083984 250.37554 58.083984 250.30664 C 58.083984 250.19755 58.169542 250.14258 58.341797 250.14258 L 61.916016 250.14258 C 62.203107 250.14258 62.388364 250.29334 62.46875 250.59766 C 62.554877 250.90198 62.642506 251.11173 62.734375 251.22656 C 62.826244 251.33566 62.995289 251.39062 63.242188 251.39062 C 63.420184 251.39063 63.581063 251.31933 63.724609 251.17578 C 63.873897 251.03224 63.949219 250.8571 63.949219 250.65039 C 63.949219 250.09917 63.743489 249.63079 63.330078 249.24609 C 62.922408 248.85565 62.488643 248.66016 62.029297 248.66016 L 58.265625 248.66016 z M 72.566406 248.66016 L 72.566406 260.10742 L 79.128906 260.10742 C 79.32987 260.10742 79.500985 260.0382 79.644531 259.90039 C 79.793819 259.75684 79.869141 259.58377 79.869141 259.38281 C 79.869141 259.18185 79.797842 259.01281 79.654297 258.875 C 79.510751 258.73146 79.341706 258.66016 79.146484 258.66016 L 74.011719 258.66016 L 74.011719 255.11133 L 76.216797 255.11133 C 76.417761 255.11133 76.586806 255.04003 76.724609 254.89648 C 76.868155 254.75294 76.941406 254.5778 76.941406 254.37109 C 76.941406 254.17587 76.868155 254.00683 76.724609 253.86328 C 76.581064 253.71973 76.412019 253.64844 76.216797 253.64844 L 74.011719 253.64844 L 74.011719 250.125 L 79.128906 250.125 C 79.32987 250.125 79.500985 250.0537 79.644531 249.91016 C 79.793819 249.76661 79.869141 249.59756 79.869141 249.40234 C 79.869141 249.20138 79.793819 249.02831 79.644531 248.88477 C 79.500985 248.73548 79.32987 248.66016 79.128906 248.66016 L 72.566406 248.66016 z M 57.333984 264.57227 C 57.13302 264.57227 56.961905 264.64356 56.818359 264.78711 C 56.680555 264.93066 56.611328 265.10579 56.611328 265.3125 C 56.611328 265.50772 56.680555 265.67872 56.818359 265.82227 C 56.961905 265.96581 57.13302 266.03711 57.333984 266.03711 L 59.556641 266.03711 L 59.556641 274.57227 L 57.333984 274.57227 C 57.13302 274.57227 56.961905 274.64356 56.818359 274.78711 C 56.680555 274.92491 56.611328 275.09396 56.611328 275.29492 C 56.611328 275.49589 56.680555 275.66896 56.818359 275.8125 C 56.961905 275.95031 57.13302 276.01953 57.333984 276.01953 L 63.191406 276.01953 C 63.386628 276.01953 63.555673 275.95031 63.699219 275.8125 C 63.842765 275.66896 63.914062 275.49589 63.914062 275.29492 C 63.914062 275.09396 63.842765 274.92491 63.699219 274.78711 C 63.561415 274.64356 63.39237 274.57227 63.191406 274.57227 L 61.003906 274.57227 L 61.003906 266.03711 L 63.191406 266.03711 C 63.386628 266.03711 63.555673 265.96581 63.699219 265.82227 C 63.842765 265.67298 63.914062 265.49784 63.914062 265.29688 C 63.914062 265.10165 63.840694 264.93066 63.691406 264.78711 C 63.54786 264.64356 63.380886 264.57227 63.191406 264.57227 L 57.333984 264.57227 z M 73.271484 264.57227 C 73.07052 264.57227 72.899405 264.64356 72.755859 264.78711 C 72.618055 264.93066 72.548828 265.10166 72.548828 265.29688 C 72.548828 265.49784 72.618055 265.67298 72.755859 265.82227 C 72.899405 265.96581 73.07052 266.03711 73.271484 266.03711 L 74.011719 266.03711 L 74.011719 274.55469 L 73.253906 274.55469 C 73.052942 274.55469 72.881827 274.63 72.738281 274.7793 C 72.600477 274.92284 72.53125 275.09396 72.53125 275.29492 C 72.53125 275.49014 72.600477 275.65919 72.738281 275.80273 C 72.881827 275.94628 73.052942 276.01953 73.253906 276.01953 L 76.019531 276.01953 C 76.444426 276.01953 76.829318 275.90959 77.173828 275.69141 C 77.518337 275.46747 77.781105 275.17217 77.964844 274.80469 L 79.404297 271.94531 C 79.691388 271.38836 79.833984 270.84465 79.833984 270.31641 C 79.833984 269.74797 79.699553 269.20415 79.429688 268.68164 L 78 265.78711 C 77.833487 265.45408 77.57279 265.16901 77.216797 264.93359 C 76.866546 264.69844 76.504078 264.57827 76.130859 264.57227 L 73.271484 264.57227 z M 75.458984 266.03711 L 75.933594 266.03711 C 76.283845 266.03711 76.536377 266.18374 76.691406 266.47656 L 78.171875 269.42188 C 78.315421 269.70323 78.388672 270.00061 78.388672 270.31641 C 78.388672 270.56905 78.29909 270.88264 78.121094 271.25586 L 76.691406 274.09766 C 76.530636 274.41346 76.28834 274.57227 75.966797 274.57227 L 75.458984 274.57227 L 75.458984 266.03711 z M 56.628906 280.48438 L 56.628906 291.93164 L 63.191406 291.93164 C 63.39237 291.93164 63.565439 291.86241 63.708984 291.72461 C 63.858272 291.58106 63.931641 291.408 63.931641 291.20703 C 63.931641 291.00607 63.860342 290.83703 63.716797 290.69922 C 63.573251 290.55567 63.404206 290.48438 63.208984 290.48438 L 58.076172 290.48438 L 58.076172 286.93555 L 60.28125 286.93555 C 60.482214 286.93555 60.651258 286.86425 60.789062 286.7207 C 60.932608 286.57716 61.003906 286.40202 61.003906 286.19531 C 61.003906 286.00009 60.932608 285.83105 60.789062 285.6875 C 60.645517 285.54395 60.476472 285.4707 60.28125 285.4707 L 58.076172 285.4707 L 58.076172 281.94922 L 63.191406 281.94922 C 63.39237 281.94922 63.565439 281.87597 63.708984 281.73242 C 63.858272 281.58888 63.931641 281.41983 63.931641 281.22461 C 63.931641 281.02364 63.858272 280.85252 63.708984 280.70898 C 63.565439 280.55969 63.39237 280.48437 63.191406 280.48438 L 56.628906 280.48438 z M 72.582031 280.48438 L 72.582031 291.20703 C 72.582031 291.408 72.651259 291.58106 72.789062 291.72461 C 72.932608 291.86241 73.105677 291.93164 73.306641 291.93164 C 73.507605 291.93164 73.67872 291.86241 73.822266 291.72461 C 73.971553 291.58106 74.046875 291.408 74.046875 291.20703 L 74.046875 285.6875 L 75.089844 285.6875 L 78.490234 291.54297 C 78.639522 291.80135 78.859393 291.93164 79.146484 291.93164 C 79.335964 291.93164 79.505009 291.86241 79.654297 291.72461 C 79.803584 291.58106 79.876953 291.41202 79.876953 291.2168 C 79.876953 291.06751 79.832104 290.91687 79.740234 290.76758 L 76.777344 285.6875 L 77.699219 285.6875 C 78.296369 285.6875 78.807527 285.47372 79.232422 285.04883 C 79.657317 284.61819 79.869141 284.10094 79.869141 283.49805 L 79.869141 282.67188 C 79.869141 282.07473 79.653293 281.5615 79.222656 281.13086 C 78.797761 280.70022 78.290627 280.48438 77.699219 280.48438 L 72.582031 280.48438 z M 90.138672 280.48438 C 89.685067 280.48437 89.298104 280.65135 88.976562 280.98438 C 88.65502 281.31166 88.494141 281.69862 88.494141 282.14648 C 88.494141 282.53119 88.620406 282.88756 88.873047 283.21484 L 94.230469 290.07812 C 94.305113 290.17001 94.341797 290.24533 94.341797 290.30273 C 94.341797 290.42331 94.264404 290.48437 94.109375 290.48438 L 90.509766 290.48438 C 90.348995 290.48438 90.21261 290.43148 90.103516 290.32812 C 90.000162 290.22478 89.949219 290.09644 89.949219 289.94141 C 89.949219 289.75193 89.879991 289.58897 89.742188 289.45117 C 89.604383 289.30763 89.439363 289.23438 89.244141 289.23438 C 88.73886 289.23437 88.484375 289.5052 88.484375 290.04492 C 88.484375 290.51576 88.675728 290.94952 89.054688 291.3457 C 89.43939 291.73614 89.889486 291.93164 90.40625 291.93164 L 94.306641 291.93164 C 94.691343 291.93164 95.039551 291.76673 95.349609 291.43945 C 95.665409 291.11217 95.824219 290.73337 95.824219 290.30273 C 95.824219 289.92377 95.693929 289.5674 95.435547 289.23438 L 90.070312 282.37109 C 89.995668 282.27923 89.958984 282.19781 89.958984 282.12891 C 89.958984 282.01981 90.044542 281.9668 90.216797 281.9668 L 93.791016 281.9668 C 94.078107 281.9668 94.261412 282.11756 94.341797 282.42188 C 94.427924 282.7262 94.517506 282.93595 94.609375 283.05078 C 94.701244 283.15987 94.870289 283.21484 95.117188 283.21484 C 95.295184 283.21484 95.456064 283.14355 95.599609 283 C 95.748897 282.85646 95.824219 282.68132 95.824219 282.47461 C 95.824219 281.92339 95.616536 281.45501 95.203125 281.07031 C 94.795456 280.67987 94.36169 280.48438 93.902344 280.48438 L 90.138672 280.48438 z M 108.07422 280.48438 C 107.28185 280.48437 106.70548 280.83672 106.34375 281.54297 L 104.74023 284.79102 C 104.52779 285.21592 104.42188 285.69453 104.42188 286.22852 C 104.42188 286.76251 104.52779 287.23905 104.74023 287.6582 L 106.34375 290.87109 C 106.49878 291.17541 106.72693 291.42794 107.03125 291.62891 C 107.3413 291.82987 107.68951 291.93164 108.07422 291.93164 C 108.88381 291.93164 109.4581 291.57733 109.79688 290.87109 L 111.39062 287.6582 C 111.61456 287.21034 111.72656 286.7338 111.72656 286.22852 C 111.72656 285.71175 111.61456 285.23314 111.39062 284.79102 L 109.79688 281.54297 C 109.45236 280.83672 108.87807 280.48438 108.07422 280.48438 z M 120.37695 280.48438 L 120.37695 291.20703 C 120.37695 291.408 120.44618 291.58106 120.58398 291.72461 C 120.72753 291.86241 120.89865 291.93164 121.09961 291.93164 C 121.30058 291.93164 121.46962 291.86241 121.60742 291.72461 C 121.75096 291.58106 121.82422 291.408 121.82422 291.20703 L 121.82422 283.04297 L 125.7168 291.93164 L 127.66211 291.93164 L 127.66211 281.22461 C 127.66211 281.0179 127.59081 280.84277 127.44727 280.69922 C 127.30947 280.55567 127.14042 280.48438 126.93945 280.48438 C 126.73849 280.48437 126.56335 280.55969 126.41406 280.70898 C 126.27052 280.85252 126.19922 281.02364 126.19922 281.22461 L 126.19922 289.35547 L 122.29688 280.48438 L 120.37695 280.48438 z M 108.07422 281.93164 C 108.28093 281.93164 108.43364 282.04364 108.53125 282.26758 L 110.04688 285.31641 C 110.19042 285.59775 110.26172 285.89708 110.26172 286.21289 C 110.26172 286.51146 110.19042 286.81287 110.04688 287.11719 L 108.49609 290.19922 C 108.39849 290.3887 108.25796 290.48438 108.07422 290.48438 C 107.86177 290.48438 107.71515 290.3887 107.63477 290.19922 L 106.09375 287.11719 C 105.95594 286.8301 105.88672 286.52869 105.88672 286.21289 C 105.88672 285.92006 105.95594 285.62073 106.09375 285.31641 L 107.5918 282.26758 C 107.70664 282.04364 107.86751 281.93164 108.07422 281.93164 z M 74.029297 281.94922 L 77.699219 281.94922 C 77.900183 281.94922 78.069228 282.02052 78.207031 282.16406 C 78.350577 282.30186 78.421875 282.47091 78.421875 282.67188 L 78.421875 283.51562 C 78.421875 283.71659 78.350577 283.88966 78.207031 284.0332 C 78.069228 284.17101 77.900183 284.24023 77.699219 284.24023 L 74.029297 284.24023 L 74.029297 281.94922 z "
         style="font-style:normal;font-variant:normal;font-weight:normal;font-stretch:normal;font-size:17.63888931px;line-height:0.875;font-family:'OCR A Extended';-inkscape-font-specification:'OCR A Extended';letter-spacing:5.29166651px;fill:#000000;stroke-width:0.26458332"
         id="path92"
         d="m 58.265625,248.66016 c -0.453604,0 -0.84252,0.16698 -1.164063,0.5 -0.321541,0.32728 -0.482421,0.71425 -0.482421,1.16211 0,0.3847 0.126266,0.74108 0.378906,1.06835 l 5.357422,6.86524 c 0.07464,0.0919 0.113281,0.16526 0.113281,0.22266 0,0.12058 -0.07739,0.18164 -0.232422,0.18164 h -3.601562 c -0.160772,0 -0.295203,-0.051 -0.404297,-0.1543 -0.103353,-0.10335 -0.154297,-0.23364 -0.154297,-0.38867 0,-0.18948 -0.06923,-0.35244 -0.207031,-0.49024 -0.137804,-0.14354 -0.304778,-0.21484 -0.5,-0.21484 -0.505281,0 -0.757813,0.26886 -0.757813,0.80859 0,0.47083 0.189399,0.9046 0.56836,1.30078 0.384702,0.39045 0.834797,0.58594 1.351562,0.58594 h 3.902344 c 0.384702,0 0.73291,-0.1649 1.042968,-0.49219 0.315801,-0.32728 0.472657,-0.70608 0.472657,-1.13671 0,-0.37896 -0.128337,-0.73338 -0.386719,-1.06641 l -5.367188,-6.86523 c -0.07464,-0.0919 -0.111328,-0.17134 -0.111328,-0.24024 0,-0.10909 0.08556,-0.16406 0.257813,-0.16406 h 3.574219 c 0.287091,0 0.472348,0.15076 0.552734,0.45508 0.08613,0.30432 0.173756,0.51407 0.265625,0.6289 0.09187,0.1091 0.260914,0.16406 0.507813,0.16406 0.177996,10e-6 0.338875,-0.0713 0.482421,-0.21484 0.149288,-0.14354 0.22461,-0.31868 0.22461,-0.52539 0,-0.55122 -0.20573,-1.0196 -0.619141,-1.4043 -0.40767,-0.39044 -0.841435,-0.58593 -1.300781,-0.58593 z m 14.300781,0 v 11.44726 h 6.5625 c 0.200964,0 0.372079,-0.0692 0.515625,-0.20703 0.149288,-0.14355 0.22461,-0.31662 0.22461,-0.51758 0,-0.20096 -0.0713,-0.37 -0.214844,-0.50781 -0.143546,-0.14354 -0.312591,-0.21484 -0.507813,-0.21484 h -5.134765 v -3.54883 h 2.205078 c 0.200964,0 0.370009,-0.0713 0.507812,-0.21485 0.143546,-0.14354 0.216797,-0.31868 0.216797,-0.52539 0,-0.19522 -0.07325,-0.36426 -0.216797,-0.50781 -0.143545,-0.14355 -0.31259,-0.21484 -0.507812,-0.21484 H 74.011719 V 250.125 h 5.117187 c 0.200964,0 0.372079,-0.0713 0.515625,-0.21484 0.149288,-0.14355 0.22461,-0.3126 0.22461,-0.50782 0,-0.20096 -0.07532,-0.37403 -0.22461,-0.51757 -0.143546,-0.14929 -0.314661,-0.22461 -0.515625,-0.22461 z m -15.232422,15.91211 c -0.200964,0 -0.372079,0.0713 -0.515625,0.21484 -0.137804,0.14355 -0.207031,0.31868 -0.207031,0.52539 0,0.19522 0.06923,0.36622 0.207031,0.50977 0.143546,0.14354 0.314661,0.21484 0.515625,0.21484 h 2.222657 v 8.53516 h -2.222657 c -0.200964,0 -0.372079,0.0713 -0.515625,0.21484 -0.137804,0.1378 -0.207031,0.30685 -0.207031,0.50781 0,0.20097 0.06923,0.37404 0.207031,0.51758 0.143546,0.13781 0.314661,0.20703 0.515625,0.20703 h 5.857422 c 0.195222,0 0.364267,-0.0692 0.507813,-0.20703 0.143546,-0.14354 0.214843,-0.31661 0.214843,-0.51758 0,-0.20096 -0.0713,-0.37001 -0.214843,-0.50781 -0.137804,-0.14355 -0.306849,-0.21484 -0.507813,-0.21484 h -2.1875 v -8.53516 h 2.1875 c 0.195222,0 0.364267,-0.0713 0.507813,-0.21484 0.143546,-0.14929 0.214843,-0.32443 0.214843,-0.52539 0,-0.19523 -0.07337,-0.36622 -0.222656,-0.50977 -0.143546,-0.14355 -0.31052,-0.21484 -0.5,-0.21484 z m 15.9375,0 c -0.200964,0 -0.372079,0.0713 -0.515625,0.21484 -0.137804,0.14355 -0.207031,0.31455 -0.207031,0.50977 0,0.20096 0.06923,0.3761 0.207031,0.52539 0.143546,0.14354 0.314661,0.21484 0.515625,0.21484 h 0.740235 v 8.51758 h -0.757813 c -0.200964,0 -0.372079,0.0753 -0.515625,0.22461 -0.137804,0.14354 -0.207031,0.31466 -0.207031,0.51562 0,0.19522 0.06923,0.36427 0.207031,0.50781 0.143546,0.14355 0.314661,0.2168 0.515625,0.2168 h 2.765625 c 0.424895,0 0.809787,-0.10994 1.154297,-0.32812 0.344509,-0.22394 0.607277,-0.51924 0.791016,-0.88672 l 1.439453,-2.85938 c 0.287091,-0.55695 0.429687,-1.10066 0.429687,-1.6289 0,-0.56844 -0.134431,-1.11226 -0.404296,-1.63477 L 78,265.78711 c -0.166513,-0.33303 -0.42721,-0.6181 -0.783203,-0.85352 -0.350251,-0.23515 -0.712719,-0.35532 -1.085938,-0.36132 z m 2.1875,1.46484 h 0.47461 c 0.350251,0 0.602783,0.14663 0.757812,0.43945 l 1.480469,2.94532 c 0.143546,0.28135 0.216797,0.57873 0.216797,0.89453 0,0.25264 -0.08958,0.56623 -0.267578,0.93945 l -1.429688,2.8418 c -0.16077,0.3158 -0.403066,0.47461 -0.724609,0.47461 h -0.507813 z m -18.830078,14.44727 v 11.44726 h 6.5625 c 0.200964,0 0.374033,-0.0692 0.517578,-0.20703 0.149288,-0.14355 0.222657,-0.31661 0.222657,-0.51758 0,-0.20096 -0.0713,-0.37 -0.214844,-0.50781 -0.143546,-0.14355 -0.312591,-0.21484 -0.507813,-0.21484 h -5.132812 v -3.54883 h 2.205078 c 0.200964,0 0.370008,-0.0713 0.507812,-0.21485 0.143546,-0.14354 0.214844,-0.31868 0.214844,-0.52539 0,-0.19522 -0.0713,-0.36426 -0.214844,-0.50781 -0.143545,-0.14355 -0.31259,-0.2168 -0.507812,-0.2168 h -2.205078 v -3.52148 h 5.115234 c 0.200964,0 0.374033,-0.0733 0.517578,-0.2168 0.149288,-0.14354 0.222657,-0.31259 0.222657,-0.50781 0,-0.20097 -0.07337,-0.37209 -0.222657,-0.51563 -0.143545,-0.14929 -0.316614,-0.22461 -0.517578,-0.2246 z m 15.953125,0 v 10.72265 c 0,0.20097 0.06923,0.37403 0.207031,0.51758 0.143546,0.1378 0.316615,0.20703 0.517579,0.20703 0.200964,0 0.372079,-0.0692 0.515625,-0.20703 0.149287,-0.14355 0.224609,-0.31661 0.224609,-0.51758 v -5.51953 h 1.042969 l 3.40039,5.85547 c 0.149288,0.25838 0.369159,0.38867 0.65625,0.38867 0.18948,0 0.358525,-0.0692 0.507813,-0.20703 0.149287,-0.14355 0.222656,-0.31259 0.222656,-0.50781 0,-0.14929 -0.04485,-0.29993 -0.136719,-0.44922 l -2.96289,-5.08008 h 0.921875 c 0.59715,0 1.108308,-0.21378 1.533203,-0.63867 0.424895,-0.43064 0.636719,-0.94789 0.636719,-1.55078 v -0.82617 c 0,-0.59715 -0.215848,-1.11038 -0.646485,-1.54102 -0.424895,-0.43064 -0.932029,-0.64648 -1.523437,-0.64648 z m 17.556641,0 c -0.453605,-10e-6 -0.840568,0.16697 -1.16211,0.5 -0.321542,0.32728 -0.482421,0.71424 -0.482421,1.1621 0,0.38471 0.126265,0.74108 0.378906,1.06836 l 5.357422,6.86328 c 0.07464,0.0919 0.111328,0.16721 0.111328,0.22461 0,0.12058 -0.07739,0.18164 -0.232422,0.18165 h -3.599609 c -0.160771,0 -0.297156,-0.0529 -0.40625,-0.15626 -0.103354,-0.10334 -0.154297,-0.23168 -0.154297,-0.38671 0,-0.18948 -0.06923,-0.35244 -0.207031,-0.49024 -0.137805,-0.14354 -0.302825,-0.21679 -0.498047,-0.21679 -0.505281,-10e-6 -0.759766,0.27082 -0.759766,0.81054 0,0.47084 0.191353,0.9046 0.570313,1.30078 0.384702,0.39044 0.834798,0.58594 1.351562,0.58594 h 3.900391 c 0.384702,0 0.73291,-0.16491 1.042968,-0.49219 0.3158,-0.32728 0.47461,-0.70608 0.47461,-1.13672 0,-0.37896 -0.13029,-0.73533 -0.388672,-1.06835 l -5.365235,-6.86329 c -0.07464,-0.0919 -0.111328,-0.17328 -0.111328,-0.24218 0,-0.1091 0.08556,-0.16211 0.257813,-0.16211 h 3.574219 c 0.287091,0 0.470396,0.15076 0.550781,0.45508 0.08613,0.30432 0.175709,0.51407 0.267578,0.6289 0.09187,0.10909 0.260914,0.16406 0.507813,0.16406 0.177996,0 0.338876,-0.0713 0.482421,-0.21484 0.149288,-0.14354 0.22461,-0.31868 0.22461,-0.52539 0,-0.55122 -0.207683,-1.0196 -0.621094,-1.4043 -0.407669,-0.39044 -0.841435,-0.58593 -1.300781,-0.58593 z m 17.935548,0 c -0.79237,-10e-6 -1.36874,0.35234 -1.73047,1.05859 l -1.60352,3.24805 c -0.21244,0.4249 -0.31835,0.90351 -0.31835,1.4375 0,0.53399 0.10591,1.01053 0.31835,1.42968 l 1.60352,3.21289 c 0.15503,0.30432 0.38318,0.55685 0.6875,0.75782 0.31005,0.20096 0.65826,0.30273 1.04297,0.30273 0.80959,0 1.38388,-0.35431 1.72266,-1.06055 l 1.59374,-3.21289 c 0.22394,-0.44786 0.33594,-0.9244 0.33594,-1.42968 0,-0.51677 -0.112,-0.99538 -0.33594,-1.4375 l -1.59374,-3.24805 c -0.34452,-0.70625 -0.91881,-1.05859 -1.72266,-1.05859 z m 12.30273,0 v 10.72265 c 0,0.20097 0.0692,0.37403 0.20703,0.51758 0.14355,0.1378 0.31467,0.20703 0.51563,0.20703 0.20097,0 0.37001,-0.0692 0.50781,-0.20703 0.14354,-0.14355 0.2168,-0.31661 0.2168,-0.51758 v -8.16406 l 3.89258,8.88867 h 1.94531 v -10.70703 c 0,-0.20671 -0.0713,-0.38184 -0.21484,-0.52539 -0.1378,-0.14355 -0.30685,-0.21484 -0.50782,-0.21484 -0.20096,-10e-6 -0.3761,0.0753 -0.52539,0.2246 -0.14354,0.14354 -0.21484,0.31466 -0.21484,0.51563 v 8.13086 l -3.90234,-8.87109 z m -12.30273,1.44726 c 0.20671,0 0.35942,0.112 0.45703,0.33594 l 1.51563,3.04883 c 0.14354,0.28134 0.21484,0.58067 0.21484,0.89648 0,0.29857 -0.0713,0.59998 -0.21484,0.9043 l -1.55079,3.08203 c -0.0976,0.18948 -0.23813,0.28516 -0.42187,0.28516 -0.21245,0 -0.35907,-0.0957 -0.43945,-0.28516 l -1.54102,-3.08203 c -0.13781,-0.28709 -0.20703,-0.5885 -0.20703,-0.9043 0,-0.29283 0.0692,-0.59216 0.20703,-0.89648 l 1.49805,-3.04883 c 0.11484,-0.22394 0.27571,-0.33594 0.48242,-0.33594 z m -34.044923,0.0176 h 3.669922 c 0.200964,0 0.370009,0.0713 0.507812,0.21484 0.143546,0.1378 0.214844,0.30685 0.214844,0.50782 v 0.84374 c 0,0.20097 -0.0713,0.37404 -0.214844,0.51758 -0.137803,0.13781 -0.306848,0.20703 -0.507812,0.20703 h -3.669922 z" />
    </g>
  </g>
  <g
     inkscape:label="Jesdavpet"
     inkscape:groupmode="layer"
     id="g5142"
     style="display:none"
     transform="translate(0,-244.30385)"
     sodipodi:insensitive="true">
    <g
       aria-label="JES
DAV
PET"
       style="font-style:normal;font-weight:normal;font-size:17.63888931px;line-height:0.875;font-family:sans-serif;letter-spacing:3.96875px;word-spacing:0px;fill:#ffffff;fill-opacity:1;stroke:none;stroke-width:0.26458332"
       id="text5130">
      <path
         sodipodi:type="inkscape:offset"
         inkscape:radius="0"
         inkscape:original="M 12.128906 248.61523 C 11.933684 248.61523 11.76671 248.68653 11.628906 248.83008 C 11.491102 248.96788 11.421875 249.13692 11.421875 249.33789 L 11.421875 257.87305 C 11.421875 258.07401 11.348506 258.24708 11.199219 258.39062 C 11.055673 258.52843 10.882605 258.59766 10.681641 258.59766 L 9.21875 258.59766 C 9.0120443 258.59766 8.836905 258.52843 8.6933594 258.39062 C 8.5498137 258.25282 8.4765625 258.08585 8.4765625 257.89062 L 8.4765625 255.58203 C 8.4765625 255.38106 8.4052643 255.21203 8.2617188 255.07422 C 8.1239149 254.93067 7.9548701 254.85937 7.7539062 254.85938 C 7.5529423 254.85937 7.3798738 254.93067 7.2363281 255.07422 C 7.0985243 255.21203 7.0292969 255.38106 7.0292969 255.58203 L 7.0292969 257.87305 C 7.0292969 258.4702 7.2430736 258.98538 7.6679688 259.41602 C 8.0986057 259.84666 8.6158583 260.06055 9.21875 260.06055 L 10.681641 260.06055 C 11.255823 260.06055 11.764911 259.84872 12.207031 259.42383 C 12.649152 258.99893 12.869141 258.48168 12.869141 257.87305 L 12.869141 249.37305 C 12.869141 249.17783 12.795772 249.00269 12.646484 248.84766 C 12.497197 248.69263 12.324128 248.61523 12.128906 248.61523 z M 22.261719 248.61523 L 22.261719 260.06055 L 28.824219 260.06055 C 29.025182 260.06055 29.196298 259.99328 29.339844 259.85547 C 29.489131 259.71193 29.564453 259.53886 29.564453 259.33789 C 29.564453 259.13692 29.493155 258.96788 29.349609 258.83008 C 29.206063 258.68653 29.037019 258.61523 28.841797 258.61523 L 23.707031 258.61523 L 23.707031 255.06641 L 25.912109 255.06641 C 26.113073 255.06641 26.284072 254.99316 26.421875 254.84961 C 26.565421 254.70606 26.636719 254.53287 26.636719 254.32617 C 26.636719 254.13095 26.565421 253.95995 26.421875 253.81641 C 26.27833 253.67287 26.107331 253.60156 25.912109 253.60156 L 23.707031 253.60156 L 23.707031 250.08008 L 28.824219 250.08008 C 29.025182 250.08008 29.196298 250.00682 29.339844 249.86328 C 29.489131 249.71973 29.564453 249.5507 29.564453 249.35547 C 29.564453 249.15451 29.489131 248.98339 29.339844 248.83984 C 29.196298 248.69056 29.025182 248.61523 28.824219 248.61523 L 22.261719 248.61523 z M 39.833984 248.61523 C 39.38038 248.61523 38.993417 248.78221 38.671875 249.11523 C 38.350333 249.44251 38.189453 249.82948 38.189453 250.27734 C 38.189453 250.66204 38.315719 251.01842 38.568359 251.3457 L 43.925781 258.20898 C 44.000425 258.30087 44.037109 258.37619 44.037109 258.43359 C 44.037109 258.55417 43.959717 258.61523 43.804688 258.61523 L 40.205078 258.61523 C 40.044307 258.61523 39.909876 258.56234 39.800781 258.45898 C 39.697428 258.35563 39.644531 258.22729 39.644531 258.07227 C 39.644531 257.88279 39.575303 257.71788 39.4375 257.58008 C 39.299696 257.43653 39.134675 257.36523 38.939453 257.36523 C 38.434172 257.36523 38.181641 257.63605 38.181641 258.17578 C 38.181641 258.64661 38.371039 259.08038 38.75 259.47656 C 39.134702 259.86701 39.584798 260.06055 40.101562 260.06055 L 44.003906 260.06055 C 44.388609 260.06055 44.734863 259.8976 45.044922 259.57031 C 45.360722 259.24303 45.519531 258.86423 45.519531 258.43359 C 45.519531 258.05463 45.389241 257.69826 45.130859 257.36523 L 39.765625 250.50195 C 39.690981 250.41009 39.654297 250.32867 39.654297 250.25977 C 39.654297 250.15067 39.739855 250.0957 39.912109 250.0957 L 43.486328 250.0957 C 43.773419 250.0957 43.956724 250.24841 44.037109 250.55273 C 44.123237 250.85705 44.212818 251.0668 44.304688 251.18164 C 44.396557 251.29073 44.565601 251.3457 44.8125 251.3457 C 44.990497 251.3457 45.151377 251.27245 45.294922 251.12891 C 45.444209 250.98536 45.519531 250.81022 45.519531 250.60352 C 45.519531 250.0523 45.311849 249.58587 44.898438 249.20117 C 44.490768 248.81073 44.057002 248.61523 43.597656 248.61523 L 39.833984 248.61523 z M 7.0292969 264.52734 C 6.8283329 264.52734 6.6572175 264.59864 6.5136719 264.74219 C 6.375868 264.88573 6.3066406 265.05478 6.3066406 265.25 C 6.3066406 265.45097 6.375868 265.6261 6.5136719 265.77539 C 6.6572175 265.91894 6.8283329 265.99023 7.0292969 265.99023 L 7.7714844 265.99023 L 7.7714844 274.50977 L 7.0136719 274.50977 C 6.812708 274.50977 6.6396394 274.58314 6.4960938 274.73242 C 6.35829 274.87597 6.2890625 275.04904 6.2890625 275.25 C 6.2890625 275.44523 6.3582899 275.61427 6.4960938 275.75781 C 6.6396394 275.90135 6.812708 275.97266 7.0136719 275.97266 L 9.7773438 275.97266 C 10.202239 275.97266 10.587131 275.86467 10.931641 275.64648 C 11.27615 275.42255 11.540871 275.12529 11.724609 274.75781 L 13.162109 271.89844 C 13.4492 271.34148 13.59375 270.79973 13.59375 270.27148 C 13.59375 269.70304 13.457365 269.15727 13.1875 268.63477 L 11.757812 265.74219 C 11.5913 265.40916 11.330603 265.12409 10.974609 264.88867 C 10.624358 264.65351 10.263844 264.53334 9.890625 264.52734 L 7.0292969 264.52734 z M 25.955078 264.52734 C 25.587601 264.52734 25.347259 264.70857 25.232422 265.07031 L 22.304688 274.96484 C 22.275981 275.05672 22.261719 275.1463 22.261719 275.23242 C 22.261719 275.43913 22.328994 275.61427 22.466797 275.75781 C 22.604601 275.90135 22.77974 275.97266 22.992188 275.97266 C 23.141475 275.97266 23.27993 275.9339 23.40625 275.85352 C 23.532569 275.76738 23.603867 275.6778 23.621094 275.58594 L 24.259766 273.48438 L 27.558594 273.48438 L 28.142578 275.44727 C 28.245931 275.79751 28.488228 275.97266 28.867188 275.97266 C 29.045184 275.97266 29.20204 275.90343 29.339844 275.76562 C 29.477648 275.62208 29.546875 275.45097 29.546875 275.25 C 29.546875 275.1811 29.536639 275.1098 29.513672 275.03516 L 26.626953 264.98242 C 26.535084 264.6781 26.311071 264.52734 25.955078 264.52734 z M 38.939453 264.52734 C 38.738489 264.52734 38.565421 264.59864 38.421875 264.74219 C 38.284072 264.88573 38.214844 265.06087 38.214844 265.26758 L 38.214844 267.92969 L 41.144531 275.42969 C 41.288077 275.79142 41.528419 275.97266 41.867188 275.97266 C 42.188729 275.97266 42.424931 275.79142 42.574219 275.42969 L 45.519531 267.92969 L 45.519531 265.26758 C 45.519531 265.06087 45.44628 264.88573 45.302734 264.74219 C 45.16493 264.59864 44.995886 264.52734 44.794922 264.52734 C 44.593958 264.52734 44.422842 264.59864 44.279297 264.74219 C 44.141493 264.88573 44.072266 265.06087 44.072266 265.26758 L 44.072266 267.64453 L 41.867188 273.24219 L 39.662109 267.62695 L 39.662109 265.26758 C 39.662109 265.06087 39.590812 264.88573 39.447266 264.74219 C 39.309462 264.59864 39.140417 264.52734 38.939453 264.52734 z M 9.21875 265.99023 L 9.6914062 265.99023 C 10.041658 265.99023 10.294189 266.13685 10.449219 266.42969 L 11.931641 269.375 C 12.075186 269.65635 12.146484 269.95568 12.146484 270.27148 C 12.146484 270.52412 12.056903 270.83772 11.878906 271.21094 L 10.449219 274.05273 C 10.288447 274.36853 10.048105 274.52539 9.7265625 274.52539 L 9.21875 274.52539 L 9.21875 265.99023 z M 25.939453 267.87695 L 27.136719 272.01953 L 24.699219 272.01953 L 25.939453 267.87695 z M 6.3242188 280.43945 L 6.3242188 291.16211 C 6.3242187 291.36307 6.3955168 291.53419 6.5390625 291.67773 C 6.6826082 291.81554 6.8577474 291.88477 7.0644531 291.88477 C 7.265417 291.88477 7.4344618 291.81554 7.5722656 291.67773 C 7.7158112 291.53419 7.7890625 291.36307 7.7890625 291.16211 L 7.7890625 287.50977 L 11.457031 287.50977 C 12.054181 287.50977 12.565339 287.29795 12.990234 286.87305 C 13.415129 286.44815 13.626953 285.93699 13.626953 285.33984 L 13.626953 282.62695 C 13.626953 282.02981 13.413059 281.51462 12.982422 281.08398 C 12.557527 280.65335 12.048439 280.43945 11.457031 280.43945 L 6.3242188 280.43945 z M 22.261719 280.43945 L 22.261719 291.88477 L 28.824219 291.88477 C 29.025182 291.88477 29.196298 291.81554 29.339844 291.67773 C 29.489131 291.53419 29.564453 291.36307 29.564453 291.16211 C 29.564453 290.96114 29.493155 290.7921 29.349609 290.6543 C 29.206063 290.51075 29.037019 290.4375 28.841797 290.4375 L 23.707031 290.4375 L 23.707031 286.88867 L 25.912109 286.88867 C 26.113073 286.88867 26.284072 286.81737 26.421875 286.67383 C 26.565421 286.53028 26.636719 286.35514 26.636719 286.14844 C 26.636719 285.95322 26.565421 285.78417 26.421875 285.64062 C 26.27833 285.49708 26.107331 285.42578 25.912109 285.42578 L 23.707031 285.42578 L 23.707031 281.90234 L 28.824219 281.90234 C 29.025182 281.90234 29.196298 281.83104 29.339844 281.6875 C 29.489131 281.54395 29.564453 281.37491 29.564453 281.17969 C 29.564453 280.97873 29.489131 280.80566 29.339844 280.66211 C 29.196298 280.51282 29.025182 280.43945 28.824219 280.43945 L 22.261719 280.43945 z M 38.181641 280.45508 L 38.181641 282.41016 C 38.181641 282.61112 38.248915 282.78419 38.386719 282.92773 C 38.530264 283.06554 38.703333 283.13477 38.904297 283.13477 C 39.105261 283.13477 39.274306 283.06554 39.412109 282.92773 C 39.555655 282.78419 39.626953 282.61112 39.626953 282.41016 L 39.626953 281.90234 L 41.091797 281.90234 L 41.091797 291.16211 C 41.091797 291.36307 41.163095 291.53419 41.306641 291.67773 C 41.450186 291.81554 41.625325 291.88477 41.832031 291.88477 C 42.027253 291.88477 42.196298 291.81554 42.339844 291.67773 C 42.483389 291.53419 42.556641 291.36307 42.556641 291.16211 L 42.556641 281.90234 L 44.019531 281.90234 L 44.019531 282.42773 C 44.019531 282.62295 44.092783 282.792 44.236328 282.93555 C 44.385615 283.07909 44.560755 283.15234 44.761719 283.15234 C 44.956941 283.15234 45.125985 283.08311 45.269531 282.94531 C 45.413077 282.80177 45.484375 282.6287 45.484375 282.42773 L 45.484375 280.45508 L 38.181641 280.45508 z M 7.7890625 281.90234 L 11.457031 281.90234 C 11.652253 281.90234 11.821298 281.97559 11.964844 282.11914 C 12.108389 282.25695 12.181641 282.42599 12.181641 282.62695 L 12.181641 285.33984 C 12.181641 285.5408 12.108389 285.71192 11.964844 285.85547 C 11.821298 285.99328 11.652253 286.0625 11.457031 286.0625 L 7.7890625 286.0625 L 7.7890625 281.90234 z "
         style="font-style:normal;font-variant:normal;font-weight:normal;font-stretch:normal;font-size:17.63888931px;line-height:0.875;font-family:'OCR A Extended';-inkscape-font-specification:'OCR A Extended';letter-spacing:5.29166651px;fill:#ffffff;stroke-width:0.26458332"
         id="path114"
         d="m 12.128906,248.61523 c -0.195222,0 -0.362196,0.0713 -0.5,0.21485 -0.137804,0.1378 -0.207031,0.30684 -0.207031,0.50781 v 8.53516 c 0,0.20096 -0.07337,0.37403 -0.222656,0.51757 -0.143546,0.13781 -0.316614,0.20704 -0.517578,0.20704 H 9.21875 c -0.2067057,0 -0.381845,-0.0692 -0.5253906,-0.20704 -0.1435457,-0.1378 -0.2167969,-0.30477 -0.2167969,-0.5 v -2.30859 c 0,-0.20097 -0.071298,-0.37 -0.2148437,-0.50781 -0.1378039,-0.14355 -0.3068487,-0.21485 -0.5078126,-0.21484 -0.2009639,-10e-6 -0.3740324,0.0713 -0.5175781,0.21484 -0.1378038,0.13781 -0.2070312,0.30684 -0.2070312,0.50781 v 2.29102 c 0,0.59715 0.2137767,1.11233 0.6386719,1.54297 0.4306369,0.43064 0.9478895,0.64453 1.5507812,0.64453 h 1.462891 c 0.574182,0 1.08327,-0.21183 1.52539,-0.63672 0.442121,-0.4249 0.66211,-0.94215 0.66211,-1.55078 v -8.5 c 0,-0.19522 -0.07337,-0.37036 -0.222657,-0.52539 -0.149287,-0.15503 -0.322356,-0.23243 -0.517578,-0.23243 z m 10.132813,0 v 11.44532 h 6.5625 c 0.200963,0 0.372079,-0.0673 0.515625,-0.20508 0.149287,-0.14354 0.224609,-0.31661 0.224609,-0.51758 0,-0.20097 -0.0713,-0.37001 -0.214844,-0.50781 -0.143546,-0.14355 -0.31259,-0.21485 -0.507812,-0.21485 h -5.134766 v -3.54882 h 2.205078 c 0.200964,0 0.371963,-0.0733 0.509766,-0.2168 0.143546,-0.14355 0.214844,-0.31674 0.214844,-0.52344 0,-0.19522 -0.0713,-0.36622 -0.214844,-0.50976 -0.143545,-0.14354 -0.314544,-0.21485 -0.509766,-0.21485 h -2.205078 v -3.52148 h 5.117188 c 0.200963,0 0.372079,-0.0733 0.515625,-0.2168 0.149287,-0.14355 0.224609,-0.31258 0.224609,-0.50781 0,-0.20096 -0.07532,-0.37208 -0.224609,-0.51563 -0.143546,-0.14928 -0.314662,-0.22461 -0.515625,-0.22461 z m 17.572265,0 c -0.453604,0 -0.840567,0.16698 -1.162109,0.5 -0.321542,0.32728 -0.482422,0.71425 -0.482422,1.16211 0,0.3847 0.126266,0.74108 0.378906,1.06836 l 5.357422,6.86328 c 0.07464,0.0919 0.111328,0.16721 0.111328,0.22461 0,0.12058 -0.07739,0.18164 -0.232421,0.18164 h -3.59961 c -0.160771,0 -0.295202,-0.0529 -0.404297,-0.15625 -0.103353,-0.10335 -0.15625,-0.23169 -0.15625,-0.38671 0,-0.18948 -0.06923,-0.35439 -0.207031,-0.49219 -0.137804,-0.14355 -0.302825,-0.21485 -0.498047,-0.21485 -0.505281,0 -0.757812,0.27082 -0.757812,0.81055 0,0.47083 0.189398,0.9046 0.568359,1.30078 0.384702,0.39045 0.834798,0.58399 1.351562,0.58399 h 3.902344 c 0.384703,0 0.730957,-0.16295 1.041016,-0.49024 0.3158,-0.32728 0.474609,-0.70608 0.474609,-1.13672 0,-0.37896 -0.13029,-0.73533 -0.388672,-1.06836 l -5.365234,-6.86328 c -0.07464,-0.0919 -0.111328,-0.17328 -0.111328,-0.24218 0,-0.1091 0.08556,-0.16407 0.257812,-0.16407 h 3.574219 c 0.287091,0 0.470396,0.15271 0.550781,0.45703 0.08613,0.30432 0.175709,0.51407 0.267579,0.62891 0.09187,0.10909 0.260913,0.16406 0.507812,0.16406 0.177997,0 0.338877,-0.0733 0.482422,-0.21679 0.149287,-0.14355 0.224609,-0.31869 0.224609,-0.52539 0,-0.55122 -0.207682,-1.01765 -0.621093,-1.40235 -0.40767,-0.39044 -0.841436,-0.58594 -1.300782,-0.58594 z M 7.0292969,264.52734 c -0.200964,0 -0.3720794,0.0713 -0.515625,0.21485 -0.1378039,0.14354 -0.2070313,0.31259 -0.2070313,0.50781 0,0.20097 0.069227,0.3761 0.2070313,0.52539 0.1435456,0.14355 0.314661,0.21484 0.515625,0.21484 h 0.7421875 v 8.51954 H 7.0136719 c -0.2009639,0 -0.3740325,0.0734 -0.5175781,0.22265 -0.1378038,0.14355 -0.2070313,0.31662 -0.2070313,0.51758 0,0.19523 0.069227,0.36427 0.2070313,0.50781 0.1435456,0.14354 0.3166142,0.21485 0.5175781,0.21485 h 2.7636719 c 0.4248952,0 0.8097872,-0.10799 1.1542972,-0.32618 0.344509,-0.22393 0.60923,-0.52119 0.792968,-0.88867 l 1.4375,-2.85937 c 0.287091,-0.55696 0.431641,-1.09871 0.431641,-1.62696 0,-0.56844 -0.136385,-1.11421 -0.40625,-1.63671 l -1.429688,-2.89258 c -0.166512,-0.33303 -0.427209,-0.6181 -0.783203,-0.85352 -0.350251,-0.23516 -0.710765,-0.35533 -1.083984,-0.36133 z m 18.9257811,0 c -0.367477,0 -0.607819,0.18123 -0.722656,0.54297 l -2.927734,9.89453 c -0.02871,0.0919 -0.04297,0.18146 -0.04297,0.26758 0,0.20671 0.06728,0.38185 0.205078,0.52539 0.137804,0.14354 0.312943,0.21485 0.525391,0.21485 0.149287,0 0.287742,-0.0388 0.414062,-0.11914 0.126319,-0.0861 0.197617,-0.17572 0.214844,-0.26758 l 0.638672,-2.10156 h 3.298828 l 0.583984,1.96289 c 0.103353,0.35024 0.34565,0.52539 0.72461,0.52539 0.177996,0 0.334852,-0.0692 0.472656,-0.20704 0.137804,-0.14354 0.207031,-0.31465 0.207031,-0.51562 0,-0.0689 -0.01024,-0.1402 -0.0332,-0.21484 l -2.886719,-10.05274 c -0.09187,-0.30432 -0.315882,-0.45508 -0.671875,-0.45508 z m 12.984375,0 c -0.200964,0 -0.374032,0.0713 -0.517578,0.21485 -0.137803,0.14354 -0.207031,0.31868 -0.207031,0.52539 v 2.66211 l 2.929687,7.5 c 0.143546,0.36173 0.383888,0.54297 0.722657,0.54297 0.321541,0 0.557743,-0.18124 0.707031,-0.54297 l 2.945312,-7.5 v -2.66211 c 0,-0.20671 -0.07325,-0.38185 -0.216797,-0.52539 -0.137804,-0.14355 -0.306848,-0.21485 -0.507812,-0.21485 -0.200964,0 -0.37208,0.0713 -0.515625,0.21485 -0.137804,0.14354 -0.207031,0.31868 -0.207031,0.52539 v 2.37695 l -2.205078,5.59766 -2.205079,-5.61524 v -2.35937 c 0,-0.20671 -0.0713,-0.38185 -0.214843,-0.52539 -0.137804,-0.14355 -0.306849,-0.21485 -0.507813,-0.21485 z M 9.21875,265.99023 h 0.4726562 c 0.3502518,0 0.6027828,0.14662 0.7578128,0.43946 l 1.482422,2.94531 c 0.143545,0.28135 0.214843,0.58068 0.214843,0.89648 0,0.25264 -0.08958,0.56624 -0.267578,0.93946 l -1.429687,2.84179 c -0.160772,0.3158 -0.401114,0.47266 -0.7226565,0.47266 H 9.21875 Z m 16.720703,1.88672 1.197266,4.14258 h -2.4375 z m -19.6152342,12.5625 v 10.72266 c -10e-8,0.20096 0.071298,0.37208 0.2148437,0.51562 0.1435457,0.13781 0.3186849,0.20704 0.5253906,0.20704 0.2009639,0 0.3700087,-0.0692 0.5078125,-0.20704 0.1435456,-0.14354 0.2167969,-0.31466 0.2167969,-0.51562 v -3.65234 h 3.6679685 c 0.59715,0 1.108308,-0.21182 1.533203,-0.63672 0.424895,-0.4249 0.636719,-0.93606 0.636719,-1.53321 v -2.71289 c 0,-0.59714 -0.213894,-1.11233 -0.644531,-1.54297 -0.424895,-0.43063 -0.933983,-0.64453 -1.525391,-0.64453 z m 15.9375002,0 v 11.44532 h 6.5625 c 0.200963,0 0.372079,-0.0692 0.515625,-0.20704 0.149287,-0.14354 0.224609,-0.31466 0.224609,-0.51562 0,-0.20097 -0.0713,-0.37001 -0.214844,-0.50781 -0.143546,-0.14355 -0.31259,-0.2168 -0.507812,-0.2168 h -5.134766 v -3.54883 h 2.205078 c 0.200964,0 0.371963,-0.0713 0.509766,-0.21484 0.143546,-0.14355 0.214844,-0.31869 0.214844,-0.52539 0,-0.19522 -0.0713,-0.36427 -0.214844,-0.50782 -0.143545,-0.14354 -0.314544,-0.21484 -0.509766,-0.21484 h -2.205078 v -3.52344 h 5.117188 c 0.200963,0 0.372079,-0.0713 0.515625,-0.21484 0.149287,-0.14355 0.224609,-0.31259 0.224609,-0.50781 0,-0.20096 -0.07532,-0.37403 -0.224609,-0.51758 -0.143546,-0.14929 -0.314662,-0.22266 -0.515625,-0.22266 z m 15.919922,0.0156 v 1.95508 c 0,0.20096 0.06727,0.37403 0.205078,0.51757 0.143545,0.13781 0.316614,0.20704 0.517578,0.20704 0.200964,0 0.370009,-0.0692 0.507812,-0.20704 0.143546,-0.14354 0.214844,-0.31661 0.214844,-0.51757 v -0.50782 h 1.464844 v 9.25977 c 0,0.20096 0.0713,0.37208 0.214844,0.51562 0.143545,0.13781 0.318684,0.20704 0.52539,0.20704 0.195222,0 0.364267,-0.0692 0.507813,-0.20704 0.143545,-0.14354 0.216797,-0.31466 0.216797,-0.51562 v -9.25977 h 1.46289 v 0.52539 c 0,0.19522 0.07325,0.36427 0.216797,0.50782 0.149287,0.14354 0.324427,0.21679 0.525391,0.21679 0.195222,0 0.364266,-0.0692 0.507812,-0.20703 0.143546,-0.14354 0.214844,-0.31661 0.214844,-0.51758 v -1.97265 z m -30.3925785,1.44726 h 3.6679685 c 0.195222,0 0.364267,0.0733 0.507813,0.2168 0.143545,0.13781 0.216797,0.30685 0.216797,0.50781 v 2.71289 c 0,0.20096 -0.07325,0.37208 -0.216797,0.51563 -0.143546,0.13781 -0.312591,0.20703 -0.507813,0.20703 H 7.7890625 Z" />
    </g>
  </g>
  <g
     inkscape:label="JesseDavidPeterson"
     inkscape:groupmode="layer"
     id="g5421"
     style="display:none"
     transform="translate(0,-244.30385)"
     sodipodi:insensitive="true">
    <g
       aria-label="JESSE
DAVID
PETERSON"
       style="font-style:normal;font-weight:normal;font-size:17.63888931px;line-height:0.875;font-family:sans-serif;letter-spacing:3.96875px;word-spacing:0px;fill:#999999;fill-opacity:1;stroke:none;stroke-width:0.26458332"
       id="text5411">
      <path
         sodipodi:type="inkscape:offset"
         inkscape:radius="0"
         inkscape:original="M 12.128906 248.61523 C 11.933684 248.61523 11.76671 248.68653 11.628906 248.83008 C 11.491102 248.96788 11.421875 249.13692 11.421875 249.33789 L 11.421875 257.87305 C 11.421875 258.07401 11.348506 258.24708 11.199219 258.39062 C 11.055673 258.52843 10.882605 258.59766 10.681641 258.59766 L 9.21875 258.59766 C 9.0120443 258.59766 8.836905 258.52843 8.6933594 258.39062 C 8.5498137 258.25282 8.4765625 258.08585 8.4765625 257.89062 L 8.4765625 255.58203 C 8.4765625 255.38106 8.4052643 255.21203 8.2617188 255.07422 C 8.1239149 254.93067 7.9548701 254.85937 7.7539062 254.85938 C 7.5529423 254.85937 7.3798738 254.93067 7.2363281 255.07422 C 7.0985243 255.21203 7.0292969 255.38106 7.0292969 255.58203 L 7.0292969 257.87305 C 7.0292969 258.4702 7.2430736 258.98538 7.6679688 259.41602 C 8.0986057 259.84666 8.6158583 260.06055 9.21875 260.06055 L 10.681641 260.06055 C 11.255823 260.06055 11.764911 259.84872 12.207031 259.42383 C 12.649152 258.99893 12.869141 258.48168 12.869141 257.87305 L 12.869141 249.37305 C 12.869141 249.17783 12.795772 249.00269 12.646484 248.84766 C 12.497197 248.69263 12.324128 248.61523 12.128906 248.61523 z M 22.261719 248.61523 L 22.261719 260.06055 L 28.824219 260.06055 C 29.025182 260.06055 29.196298 259.99328 29.339844 259.85547 C 29.489131 259.71193 29.564453 259.53886 29.564453 259.33789 C 29.564453 259.13692 29.493155 258.96788 29.349609 258.83008 C 29.206063 258.68653 29.037019 258.61523 28.841797 258.61523 L 23.707031 258.61523 L 23.707031 255.06641 L 25.912109 255.06641 C 26.113073 255.06641 26.284072 254.99316 26.421875 254.84961 C 26.565421 254.70606 26.636719 254.53287 26.636719 254.32617 C 26.636719 254.13095 26.565421 253.95995 26.421875 253.81641 C 26.27833 253.67287 26.107331 253.60156 25.912109 253.60156 L 23.707031 253.60156 L 23.707031 250.08008 L 28.824219 250.08008 C 29.025182 250.08008 29.196298 250.00682 29.339844 249.86328 C 29.489131 249.71973 29.564453 249.5507 29.564453 249.35547 C 29.564453 249.15451 29.489131 248.98339 29.339844 248.83984 C 29.196298 248.69056 29.025182 248.61523 28.824219 248.61523 L 22.261719 248.61523 z M 39.833984 248.61523 C 39.38038 248.61523 38.993417 248.78221 38.671875 249.11523 C 38.350333 249.44251 38.189453 249.82948 38.189453 250.27734 C 38.189453 250.66204 38.315719 251.01842 38.568359 251.3457 L 43.925781 258.20898 C 44.000425 258.30087 44.037109 258.37619 44.037109 258.43359 C 44.037109 258.55417 43.959717 258.61523 43.804688 258.61523 L 40.205078 258.61523 C 40.044307 258.61523 39.909876 258.56234 39.800781 258.45898 C 39.697428 258.35563 39.644531 258.22729 39.644531 258.07227 C 39.644531 257.88279 39.575303 257.71788 39.4375 257.58008 C 39.299696 257.43653 39.134675 257.36523 38.939453 257.36523 C 38.434172 257.36523 38.181641 257.63605 38.181641 258.17578 C 38.181641 258.64661 38.371039 259.08038 38.75 259.47656 C 39.134702 259.86701 39.584798 260.06055 40.101562 260.06055 L 44.003906 260.06055 C 44.388609 260.06055 44.734863 259.8976 45.044922 259.57031 C 45.360722 259.24303 45.519531 258.86423 45.519531 258.43359 C 45.519531 258.05463 45.389241 257.69826 45.130859 257.36523 L 39.765625 250.50195 C 39.690981 250.41009 39.654297 250.32867 39.654297 250.25977 C 39.654297 250.15067 39.739855 250.0957 39.912109 250.0957 L 43.486328 250.0957 C 43.773419 250.0957 43.956724 250.24841 44.037109 250.55273 C 44.123237 250.85705 44.212818 251.0668 44.304688 251.18164 C 44.396557 251.29073 44.565601 251.3457 44.8125 251.3457 C 44.990497 251.3457 45.151377 251.27245 45.294922 251.12891 C 45.444209 250.98536 45.519531 250.81022 45.519531 250.60352 C 45.519531 250.0523 45.311849 249.58587 44.898438 249.20117 C 44.490768 248.81073 44.057002 248.61523 43.597656 248.61523 L 39.833984 248.61523 z M 55.771484 248.61523 C 55.31788 248.61523 54.930917 248.78221 54.609375 249.11523 C 54.287832 249.44251 54.126953 249.82948 54.126953 250.27734 C 54.126953 250.66204 54.253219 251.01842 54.505859 251.3457 L 59.863281 258.20898 C 59.937925 258.30087 59.974609 258.37619 59.974609 258.43359 C 59.974609 258.55417 59.897217 258.61523 59.742188 258.61523 L 56.142578 258.61523 C 55.981807 258.61523 55.845423 258.56234 55.736328 258.45898 C 55.632975 258.35563 55.582031 258.22729 55.582031 258.07227 C 55.582031 257.88279 55.512804 257.71788 55.375 257.58008 C 55.237197 257.43653 55.070222 257.36523 54.875 257.36523 C 54.369719 257.36523 54.117188 257.63605 54.117188 258.17578 C 54.117187 258.64661 54.306586 259.08038 54.685547 259.47656 C 55.07025 259.86701 55.522298 260.06055 56.039062 260.06055 L 59.939453 260.06055 C 60.324156 260.06055 60.672364 259.8976 60.982422 259.57031 C 61.298223 259.24303 61.455078 258.86423 61.455078 258.43359 C 61.455078 258.05463 61.326741 257.69826 61.068359 257.36523 L 55.703125 250.50195 C 55.628482 250.41009 55.589844 250.32867 55.589844 250.25977 C 55.589844 250.15067 55.677355 250.0957 55.849609 250.0957 L 59.423828 250.0957 C 59.710919 250.0957 59.894224 250.24841 59.974609 250.55273 C 60.060737 250.85705 60.150318 251.0668 60.242188 251.18164 C 60.334057 251.29073 60.503102 251.3457 60.75 251.3457 C 60.927997 251.3457 61.088876 251.27245 61.232422 251.12891 C 61.381709 250.98536 61.455078 250.81022 61.455078 250.60352 C 61.455078 250.0523 61.249349 249.58587 60.835938 249.20117 C 60.428267 248.81073 59.994502 248.61523 59.535156 248.61523 L 55.771484 248.61523 z M 70.072266 248.61523 L 70.072266 260.06055 L 76.634766 260.06055 C 76.83573 260.06055 77.008798 259.99328 77.152344 259.85547 C 77.301631 259.71193 77.375 259.53886 77.375 259.33789 C 77.375 259.13692 77.303702 258.96788 77.160156 258.83008 C 77.01661 258.68653 76.847566 258.61523 76.652344 258.61523 L 71.519531 258.61523 L 71.519531 255.06641 L 73.724609 255.06641 C 73.925573 255.06641 74.094618 254.99316 74.232422 254.84961 C 74.375967 254.70606 74.447266 254.53287 74.447266 254.32617 C 74.447266 254.13095 74.375967 253.95995 74.232422 253.81641 C 74.088876 253.67287 73.919831 253.60156 73.724609 253.60156 L 71.519531 253.60156 L 71.519531 250.08008 L 76.634766 250.08008 C 76.83573 250.08008 77.008798 250.00682 77.152344 249.86328 C 77.301631 249.71973 77.375 249.5507 77.375 249.35547 C 77.375 249.15451 77.301631 248.98339 77.152344 248.83984 C 77.008798 248.69056 76.83573 248.61523 76.634766 248.61523 L 70.072266 248.61523 z M 7.0292969 264.52734 C 6.8283329 264.52734 6.6572175 264.59864 6.5136719 264.74219 C 6.375868 264.88573 6.3066406 265.05478 6.3066406 265.25 C 6.3066406 265.45097 6.375868 265.6261 6.5136719 265.77539 C 6.6572175 265.91894 6.8283329 265.99023 7.0292969 265.99023 L 7.7714844 265.99023 L 7.7714844 274.50977 L 7.0136719 274.50977 C 6.812708 274.50977 6.6396394 274.58314 6.4960938 274.73242 C 6.35829 274.87597 6.2890625 275.04904 6.2890625 275.25 C 6.2890625 275.44523 6.3582899 275.61427 6.4960938 275.75781 C 6.6396394 275.90135 6.812708 275.97266 7.0136719 275.97266 L 9.7773438 275.97266 C 10.202239 275.97266 10.587131 275.86467 10.931641 275.64648 C 11.27615 275.42255 11.540871 275.12529 11.724609 274.75781 L 13.162109 271.89844 C 13.4492 271.34148 13.59375 270.79973 13.59375 270.27148 C 13.59375 269.70304 13.457365 269.15727 13.1875 268.63477 L 11.757812 265.74219 C 11.5913 265.40916 11.330603 265.12409 10.974609 264.88867 C 10.624358 264.65351 10.263844 264.53334 9.890625 264.52734 L 7.0292969 264.52734 z M 25.955078 264.52734 C 25.587601 264.52734 25.347259 264.70857 25.232422 265.07031 L 22.304688 274.96484 C 22.275981 275.05672 22.261719 275.1463 22.261719 275.23242 C 22.261719 275.43913 22.328994 275.61427 22.466797 275.75781 C 22.604601 275.90135 22.77974 275.97266 22.992188 275.97266 C 23.141475 275.97266 23.27993 275.9339 23.40625 275.85352 C 23.532569 275.76738 23.603867 275.6778 23.621094 275.58594 L 24.259766 273.48438 L 27.558594 273.48438 L 28.142578 275.44727 C 28.245931 275.79751 28.488228 275.97266 28.867188 275.97266 C 29.045184 275.97266 29.20204 275.90342 29.339844 275.76562 C 29.477648 275.62208 29.546875 275.45097 29.546875 275.25 C 29.546875 275.1811 29.536639 275.1098 29.513672 275.03516 L 26.626953 264.98242 C 26.535084 264.6781 26.311071 264.52734 25.955078 264.52734 z M 38.939453 264.52734 C 38.738489 264.52734 38.565421 264.59864 38.421875 264.74219 C 38.284072 264.88573 38.214844 265.06087 38.214844 265.26758 L 38.214844 267.92969 L 41.144531 275.42969 C 41.288077 275.79142 41.528419 275.97266 41.867188 275.97266 C 42.188729 275.97266 42.424931 275.79142 42.574219 275.42969 L 45.519531 267.92969 L 45.519531 265.26758 C 45.519531 265.06087 45.44628 264.88573 45.302734 264.74219 C 45.16493 264.59864 44.995886 264.52734 44.794922 264.52734 C 44.593958 264.52734 44.422842 264.59864 44.279297 264.74219 C 44.141493 264.88573 44.072266 265.06087 44.072266 265.26758 L 44.072266 267.64453 L 41.867188 273.24219 L 39.662109 267.62695 L 39.662109 265.26758 C 39.662109 265.06087 39.590812 264.88573 39.447266 264.74219 C 39.309462 264.59864 39.140417 264.52734 38.939453 264.52734 z M 54.841797 264.52734 C 54.640833 264.52734 54.467765 264.59864 54.324219 264.74219 C 54.186415 264.88573 54.117187 265.06087 54.117188 265.26758 C 54.117187 265.4628 54.186415 265.63184 54.324219 265.77539 C 54.467765 265.91894 54.640833 265.99023 54.841797 265.99023 L 57.0625 265.99023 L 57.0625 274.52539 L 54.841797 274.52539 C 54.640833 274.52539 54.467765 274.59864 54.324219 274.74219 C 54.186415 274.87999 54.117187 275.04904 54.117188 275.25 C 54.117187 275.45097 54.186415 275.62208 54.324219 275.76562 C 54.467765 275.90343 54.640833 275.97266 54.841797 275.97266 L 60.697266 275.97266 C 60.892488 275.97266 61.063485 275.90343 61.207031 275.76562 C 61.350577 275.62208 61.421875 275.45097 61.421875 275.25 C 61.421875 275.04904 61.350577 274.87999 61.207031 274.74219 C 61.069227 274.59864 60.89823 274.52539 60.697266 274.52539 L 58.509766 274.52539 L 58.509766 265.99023 L 60.697266 265.99023 C 60.892488 265.99023 61.063485 265.91894 61.207031 265.77539 C 61.350577 265.6261 61.421875 265.45097 61.421875 265.25 C 61.421875 265.05478 61.346553 264.88573 61.197266 264.74219 C 61.05372 264.59864 60.886746 264.52734 60.697266 264.52734 L 54.841797 264.52734 z M 70.777344 264.52734 C 70.57638 264.52734 70.405264 264.59864 70.261719 264.74219 C 70.123915 264.88573 70.054688 265.05478 70.054688 265.25 C 70.054688 265.45097 70.123915 265.6261 70.261719 265.77539 C 70.405264 265.91894 70.57638 265.99023 70.777344 265.99023 L 71.519531 265.99023 L 71.519531 274.50977 L 70.761719 274.50977 C 70.560755 274.50977 70.387687 274.58314 70.244141 274.73242 C 70.106337 274.87597 70.037109 275.04904 70.037109 275.25 C 70.037109 275.44523 70.106337 275.61427 70.244141 275.75781 C 70.387687 275.90135 70.560755 275.97266 70.761719 275.97266 L 73.525391 275.97266 C 73.950286 275.97266 74.335178 275.86467 74.679688 275.64648 C 75.024197 275.42255 75.288918 275.12529 75.472656 274.75781 L 76.910156 271.89844 C 77.197248 271.34148 77.341797 270.79973 77.341797 270.27148 C 77.341797 269.70304 77.205412 269.15727 76.935547 268.63477 L 75.505859 265.74219 C 75.339347 265.40916 75.07865 265.12409 74.722656 264.88867 C 74.372405 264.65351 74.011891 264.53334 73.638672 264.52734 L 70.777344 264.52734 z M 9.21875 265.99023 L 9.6914062 265.99023 C 10.041658 265.99023 10.294189 266.13685 10.449219 266.42969 L 11.931641 269.375 C 12.075186 269.65635 12.146484 269.95568 12.146484 270.27148 C 12.146484 270.52412 12.056903 270.83772 11.878906 271.21094 L 10.449219 274.05273 C 10.288447 274.36853 10.048105 274.52539 9.7265625 274.52539 L 9.21875 274.52539 L 9.21875 265.99023 z M 72.966797 265.99023 L 73.439453 265.99023 C 73.789704 265.99023 74.042236 266.13685 74.197266 266.42969 L 75.679688 269.375 C 75.823233 269.65635 75.894531 269.95568 75.894531 270.27148 C 75.894531 270.52412 75.80495 270.83772 75.626953 271.21094 L 74.197266 274.05273 C 74.036494 274.36853 73.796151 274.52539 73.474609 274.52539 L 72.966797 274.52539 L 72.966797 265.99023 z M 25.939453 267.87695 L 27.136719 272.01953 L 24.699219 272.01953 L 25.939453 267.87695 z M 6.3242188 280.43945 L 6.3242188 291.16211 C 6.3242187 291.36307 6.3955168 291.53419 6.5390625 291.67773 C 6.6826082 291.81554 6.8577474 291.88477 7.0644531 291.88477 C 7.265417 291.88477 7.4344618 291.81554 7.5722656 291.67773 C 7.7158112 291.53419 7.7890625 291.36307 7.7890625 291.16211 L 7.7890625 287.50977 L 11.457031 287.50977 C 12.054181 287.50977 12.565339 287.29795 12.990234 286.87305 C 13.415129 286.44815 13.626953 285.93699 13.626953 285.33984 L 13.626953 282.62695 C 13.626953 282.02981 13.413059 281.51462 12.982422 281.08398 C 12.557527 280.65335 12.048439 280.43945 11.457031 280.43945 L 6.3242188 280.43945 z M 22.261719 280.43945 L 22.261719 291.88477 L 28.824219 291.88477 C 29.025182 291.88477 29.196298 291.81554 29.339844 291.67773 C 29.489131 291.53419 29.564453 291.36307 29.564453 291.16211 C 29.564453 290.96114 29.493155 290.7921 29.349609 290.6543 C 29.206063 290.51075 29.037019 290.4375 28.841797 290.4375 L 23.707031 290.4375 L 23.707031 286.88867 L 25.912109 286.88867 C 26.113073 286.88867 26.284072 286.81737 26.421875 286.67383 C 26.565421 286.53028 26.636719 286.35514 26.636719 286.14844 C 26.636719 285.95322 26.565421 285.78417 26.421875 285.64062 C 26.27833 285.49708 26.107331 285.42578 25.912109 285.42578 L 23.707031 285.42578 L 23.707031 281.90234 L 28.824219 281.90234 C 29.025182 281.90234 29.196298 281.83104 29.339844 281.6875 C 29.489131 281.54395 29.564453 281.37491 29.564453 281.17969 C 29.564453 280.97873 29.489131 280.80566 29.339844 280.66211 C 29.196298 280.51282 29.025182 280.43945 28.824219 280.43945 L 22.261719 280.43945 z M 54.134766 280.43945 L 54.134766 291.88477 L 60.697266 291.88477 C 60.89823 291.88477 61.071298 291.81554 61.214844 291.67773 C 61.364132 291.53419 61.439453 291.36307 61.439453 291.16211 C 61.439453 290.96114 61.366202 290.7921 61.222656 290.6543 C 61.079111 290.51075 60.910066 290.4375 60.714844 290.4375 L 55.582031 290.4375 L 55.582031 286.88867 L 57.787109 286.88867 C 57.988073 286.88867 58.157118 286.81737 58.294922 286.67383 C 58.438467 286.53028 58.509766 286.35514 58.509766 286.14844 C 58.509766 285.95322 58.438467 285.78417 58.294922 285.64062 C 58.151376 285.49708 57.982331 285.42578 57.787109 285.42578 L 55.582031 285.42578 L 55.582031 281.90234 L 60.697266 281.90234 C 60.89823 281.90234 61.071298 281.83104 61.214844 281.6875 C 61.364132 281.54395 61.439453 281.37491 61.439453 281.17969 C 61.439453 280.97873 61.364132 280.80566 61.214844 280.66211 C 61.071298 280.51282 60.89823 280.43945 60.697266 280.43945 L 54.134766 280.43945 z M 70.089844 280.43945 L 70.089844 291.16211 C 70.089844 291.36307 70.159071 291.53419 70.296875 291.67773 C 70.44042 291.81554 70.611536 291.88477 70.8125 291.88477 C 71.013464 291.88477 71.186532 291.81554 71.330078 291.67773 C 71.479365 291.53419 71.552734 291.36307 71.552734 291.16211 L 71.552734 285.64062 L 72.595703 285.64062 L 75.998047 291.49805 C 76.147334 291.75643 76.365252 291.88477 76.652344 291.88477 C 76.841824 291.88477 77.010869 291.81554 77.160156 291.67773 C 77.309444 291.53419 77.384766 291.36514 77.384766 291.16992 C 77.384766 291.02064 77.337963 290.87194 77.246094 290.72266 L 74.283203 285.64062 L 75.205078 285.64062 C 75.802228 285.64062 76.313386 285.4288 76.738281 285.00391 C 77.163176 284.57327 77.375 284.05601 77.375 283.45312 L 77.375 282.62695 C 77.375 282.02981 77.161105 281.51462 76.730469 281.08398 C 76.305573 280.65335 75.796486 280.43945 75.205078 280.43945 L 70.089844 280.43945 z M 87.644531 280.43945 C 87.190927 280.43945 86.803964 280.60447 86.482422 280.9375 C 86.16088 281.26478 86 281.6537 86 282.10156 C 86 282.48626 86.126266 282.84068 86.378906 283.16797 L 91.736328 290.0332 C 91.810971 290.12509 91.847656 290.20041 91.847656 290.25781 C 91.847656 290.37839 91.770264 290.4375 91.615234 290.4375 L 88.015625 290.4375 C 87.854854 290.4375 87.720423 290.38656 87.611328 290.2832 C 87.507975 290.17985 87.455078 290.04956 87.455078 289.89453 C 87.455078 289.70505 87.387804 289.5421 87.25 289.4043 C 87.112196 289.26075 86.945222 289.18945 86.75 289.18945 C 86.244719 289.18945 85.992187 289.45831 85.992188 289.99805 C 85.992187 290.46887 86.181586 290.90264 86.560547 291.29883 C 86.945249 291.68927 87.395345 291.88477 87.912109 291.88477 L 91.814453 291.88477 C 92.199156 291.88477 92.54541 291.72182 92.855469 291.39453 C 93.171269 291.06725 93.330078 290.68845 93.330078 290.25781 C 93.330078 289.87885 93.199788 289.52248 92.941406 289.18945 L 87.576172 282.32422 C 87.501528 282.23235 87.464844 282.15288 87.464844 282.08398 C 87.464844 281.97489 87.550402 281.91992 87.722656 281.91992 L 91.296875 281.91992 C 91.583966 281.91992 91.767271 282.07264 91.847656 282.37695 C 91.933784 282.68127 92.023365 282.89103 92.115234 283.00586 C 92.207104 283.11496 92.376148 283.16797 92.623047 283.16797 C 92.801044 283.16797 92.961923 283.09667 93.105469 282.95312 C 93.254756 282.80958 93.330078 282.63444 93.330078 282.42773 C 93.330078 281.87652 93.122396 281.40814 92.708984 281.02344 C 92.301315 280.633 91.869502 280.43945 91.410156 280.43945 L 87.644531 280.43945 z M 105.58008 280.43945 C 104.7877 280.43945 104.21134 280.7918 103.84961 281.49805 L 102.24805 284.74414 C 102.0356 285.16903 101.92969 285.6496 101.92969 286.18359 C 101.92969 286.71758 102.0356 287.19413 102.24805 287.61328 L 103.84961 290.82617 C 104.00464 291.13049 104.23474 291.38302 104.53906 291.58398 C 104.84912 291.78495 105.19538 291.88477 105.58008 291.88477 C 106.38968 291.88477 106.96397 291.53242 107.30273 290.82617 L 108.89648 287.61328 C 109.12042 287.16542 109.23242 286.68887 109.23242 286.18359 C 109.23242 285.66683 109.12042 285.18626 108.89648 284.74414 L 107.30273 281.49805 C 106.95822 280.7918 106.38393 280.43945 105.58008 280.43945 z M 117.88281 280.43945 L 117.88281 291.16211 C 117.88281 291.36307 117.95204 291.53419 118.08984 291.67773 C 118.23339 291.81554 118.40646 291.88477 118.60742 291.88477 C 118.80839 291.88477 118.97743 291.81554 119.11523 291.67773 C 119.25877 291.53419 119.33008 291.36307 119.33008 291.16211 L 119.33008 282.99609 L 123.22266 291.88477 L 125.16992 291.88477 L 125.16992 281.17969 C 125.16992 280.97299 125.09862 280.79784 124.95508 280.6543 C 124.81728 280.51075 124.64628 280.43945 124.44531 280.43945 C 124.24435 280.43945 124.06922 280.51282 123.91992 280.66211 C 123.77638 280.80566 123.70508 280.97873 123.70508 281.17969 L 123.70508 289.31055 L 119.80469 280.43945 L 117.88281 280.43945 z M 38.181641 280.45508 L 38.181641 282.41016 C 38.181641 282.61112 38.248915 282.78419 38.386719 282.92773 C 38.530264 283.06554 38.703333 283.13477 38.904297 283.13477 C 39.105261 283.13477 39.274306 283.06554 39.412109 282.92773 C 39.555655 282.78419 39.626953 282.61112 39.626953 282.41016 L 39.626953 281.90234 L 41.091797 281.90234 L 41.091797 291.16211 C 41.091797 291.36307 41.163095 291.53419 41.306641 291.67773 C 41.450186 291.81554 41.625325 291.88477 41.832031 291.88477 C 42.027253 291.88477 42.196298 291.81554 42.339844 291.67773 C 42.483389 291.53419 42.556641 291.36307 42.556641 291.16211 L 42.556641 281.90234 L 44.019531 281.90234 L 44.019531 282.42773 C 44.019531 282.62295 44.092783 282.792 44.236328 282.93555 C 44.385615 283.07909 44.560755 283.15234 44.761719 283.15234 C 44.956941 283.15234 45.125985 283.08311 45.269531 282.94531 C 45.413077 282.80177 45.484375 282.6287 45.484375 282.42773 L 45.484375 280.45508 L 38.181641 280.45508 z M 105.58008 281.88477 C 105.78678 281.88477 105.9395 281.99677 106.03711 282.2207 L 107.55273 285.26953 C 107.69627 285.55088 107.76758 285.85022 107.76758 286.16602 C 107.76758 286.46459 107.69627 286.76599 107.55273 287.07031 L 106.00195 290.1543 C 105.90435 290.34378 105.76382 290.4375 105.58008 290.4375 C 105.36763 290.4375 105.22101 290.34378 105.14062 290.1543 L 103.59961 287.07031 C 103.4618 286.78322 103.39258 286.48182 103.39258 286.16602 C 103.39258 285.87318 103.4618 285.57385 103.59961 285.26953 L 105.09766 282.2207 C 105.21249 281.99677 105.37337 281.88477 105.58008 281.88477 z M 7.7890625 281.90234 L 11.457031 281.90234 C 11.652253 281.90234 11.821298 281.97559 11.964844 282.11914 C 12.108389 282.25695 12.181641 282.42599 12.181641 282.62695 L 12.181641 285.33984 C 12.181641 285.5408 12.108389 285.71192 11.964844 285.85547 C 11.821298 285.99328 11.652253 286.0625 11.457031 286.0625 L 7.7890625 286.0625 L 7.7890625 281.90234 z M 71.537109 281.90234 L 75.205078 281.90234 C 75.406042 281.90234 75.575087 281.97559 75.712891 282.11914 C 75.856436 282.25695 75.929688 282.42599 75.929688 282.62695 L 75.929688 283.4707 C 75.929688 283.67167 75.856436 283.84278 75.712891 283.98633 C 75.575087 284.12413 75.406042 284.19336 75.205078 284.19336 L 71.537109 284.19336 L 71.537109 281.90234 z "
         style="font-style:normal;font-variant:normal;font-weight:normal;font-stretch:normal;font-size:17.63888931px;line-height:0.875;font-family:'OCR A Extended';-inkscape-font-specification:'OCR A Extended';letter-spacing:5.29166651px;fill:#999999;stroke-width:0.26458332"
         id="path154"
         d="m 12.128906,248.61523 c -0.195222,0 -0.362196,0.0713 -0.5,0.21485 -0.137804,0.1378 -0.207031,0.30684 -0.207031,0.50781 v 8.53516 c 0,0.20096 -0.07337,0.37403 -0.222656,0.51757 -0.143546,0.13781 -0.316614,0.20704 -0.517578,0.20704 H 9.21875 c -0.2067057,0 -0.381845,-0.0692 -0.5253906,-0.20704 -0.1435457,-0.1378 -0.2167969,-0.30477 -0.2167969,-0.5 v -2.30859 c 0,-0.20097 -0.071298,-0.37 -0.2148437,-0.50781 -0.1378039,-0.14355 -0.3068487,-0.21485 -0.5078126,-0.21484 -0.2009639,-10e-6 -0.3740324,0.0713 -0.5175781,0.21484 -0.1378038,0.13781 -0.2070312,0.30684 -0.2070312,0.50781 v 2.29102 c 0,0.59715 0.2137767,1.11233 0.6386719,1.54297 0.4306369,0.43064 0.9478895,0.64453 1.5507812,0.64453 h 1.462891 c 0.574182,0 1.08327,-0.21183 1.52539,-0.63672 0.442121,-0.4249 0.66211,-0.94215 0.66211,-1.55078 v -8.5 c 0,-0.19522 -0.07337,-0.37036 -0.222657,-0.52539 -0.149287,-0.15503 -0.322356,-0.23243 -0.517578,-0.23243 z m 10.132813,0 v 11.44532 h 6.5625 c 0.200963,0 0.372079,-0.0673 0.515625,-0.20508 0.149287,-0.14354 0.224609,-0.31661 0.224609,-0.51758 0,-0.20097 -0.0713,-0.37001 -0.214844,-0.50781 -0.143546,-0.14355 -0.31259,-0.21485 -0.507812,-0.21485 h -5.134766 v -3.54882 h 2.205078 c 0.200964,0 0.371963,-0.0733 0.509766,-0.2168 0.143546,-0.14355 0.214844,-0.31674 0.214844,-0.52344 0,-0.19522 -0.0713,-0.36622 -0.214844,-0.50976 -0.143545,-0.14354 -0.314544,-0.21485 -0.509766,-0.21485 h -2.205078 v -3.52148 h 5.117188 c 0.200963,0 0.372079,-0.0733 0.515625,-0.2168 0.149287,-0.14355 0.224609,-0.31258 0.224609,-0.50781 0,-0.20096 -0.07532,-0.37208 -0.224609,-0.51563 -0.143546,-0.14928 -0.314662,-0.22461 -0.515625,-0.22461 z m 17.572265,0 c -0.453604,0 -0.840567,0.16698 -1.162109,0.5 -0.321542,0.32728 -0.482422,0.71425 -0.482422,1.16211 0,0.3847 0.126266,0.74108 0.378906,1.06836 l 5.357422,6.86328 c 0.07464,0.0919 0.111328,0.16721 0.111328,0.22461 0,0.12058 -0.07739,0.18164 -0.232421,0.18164 h -3.59961 c -0.160771,0 -0.295202,-0.0529 -0.404297,-0.15625 -0.103353,-0.10335 -0.15625,-0.23169 -0.15625,-0.38671 0,-0.18948 -0.06923,-0.35439 -0.207031,-0.49219 -0.137804,-0.14355 -0.302825,-0.21485 -0.498047,-0.21485 -0.505281,0 -0.757812,0.27082 -0.757812,0.81055 0,0.47083 0.189398,0.9046 0.568359,1.30078 0.384702,0.39045 0.834798,0.58399 1.351562,0.58399 h 3.902344 c 0.384703,0 0.730957,-0.16295 1.041016,-0.49024 0.3158,-0.32728 0.474609,-0.70608 0.474609,-1.13672 0,-0.37896 -0.13029,-0.73533 -0.388672,-1.06836 l -5.365234,-6.86328 c -0.07464,-0.0919 -0.111328,-0.17328 -0.111328,-0.24218 0,-0.1091 0.08556,-0.16407 0.257812,-0.16407 h 3.574219 c 0.287091,0 0.470396,0.15271 0.550781,0.45703 0.08613,0.30432 0.175709,0.51407 0.267579,0.62891 0.09187,0.10909 0.260913,0.16406 0.507812,0.16406 0.177997,0 0.338877,-0.0733 0.482422,-0.21679 0.149287,-0.14355 0.224609,-0.31869 0.224609,-0.52539 0,-0.55122 -0.207682,-1.01765 -0.621093,-1.40235 -0.40767,-0.39044 -0.841436,-0.58594 -1.300782,-0.58594 z m 15.9375,0 c -0.453604,0 -0.840567,0.16698 -1.162109,0.5 -0.321543,0.32728 -0.482422,0.71425 -0.482422,1.16211 0,0.3847 0.126266,0.74108 0.378906,1.06836 l 5.357422,6.86328 c 0.07464,0.0919 0.111328,0.16721 0.111328,0.22461 0,0.12058 -0.07739,0.18164 -0.232421,0.18164 h -3.59961 c -0.160771,0 -0.297155,-0.0529 -0.40625,-0.15625 -0.103353,-0.10335 -0.154297,-0.23169 -0.154297,-0.38671 0,-0.18948 -0.06923,-0.35439 -0.207031,-0.49219 -0.137803,-0.14355 -0.304778,-0.21485 -0.5,-0.21485 -0.505281,0 -0.757812,0.27082 -0.757812,0.81055 -10e-7,0.47083 0.189398,0.9046 0.568359,1.30078 0.384703,0.39045 0.836751,0.58399 1.353515,0.58399 h 3.900391 c 0.384703,0 0.732911,-0.16295 1.042969,-0.49024 0.315801,-0.32728 0.472656,-0.70608 0.472656,-1.13672 0,-0.37896 -0.128337,-0.73533 -0.386719,-1.06836 l -5.365234,-6.86328 c -0.07464,-0.0919 -0.113281,-0.17328 -0.113281,-0.24218 0,-0.1091 0.08751,-0.16407 0.259765,-0.16407 h 3.574219 c 0.287091,0 0.470396,0.15271 0.550781,0.45703 0.08613,0.30432 0.175709,0.51407 0.267579,0.62891 0.09187,0.10909 0.260914,0.16406 0.507812,0.16406 0.177997,0 0.338876,-0.0733 0.482422,-0.21679 0.149287,-0.14355 0.222656,-0.31869 0.222656,-0.52539 0,-0.55122 -0.205729,-1.01765 -0.61914,-1.40235 -0.407671,-0.39044 -0.841436,-0.58594 -1.300782,-0.58594 z m 14.300782,0 v 11.44532 h 6.5625 c 0.200964,0 0.374032,-0.0673 0.517578,-0.20508 0.149287,-0.14354 0.222656,-0.31661 0.222656,-0.51758 0,-0.20097 -0.0713,-0.37001 -0.214844,-0.50781 -0.143546,-0.14355 -0.31259,-0.21485 -0.507812,-0.21485 h -5.132813 v -3.54882 h 2.205078 c 0.200964,0 0.370009,-0.0733 0.507813,-0.2168 0.143545,-0.14355 0.214844,-0.31674 0.214844,-0.52344 0,-0.19522 -0.0713,-0.36622 -0.214844,-0.50976 -0.143546,-0.14354 -0.312591,-0.21485 -0.507813,-0.21485 h -2.205078 v -3.52148 h 5.115235 c 0.200964,0 0.374032,-0.0733 0.517578,-0.2168 0.149287,-0.14355 0.222656,-0.31258 0.222656,-0.50781 0,-0.20096 -0.07337,-0.37208 -0.222656,-0.51563 -0.143546,-0.14928 -0.316614,-0.22461 -0.517578,-0.22461 z M 7.0292969,264.52734 c -0.200964,0 -0.3720794,0.0713 -0.515625,0.21485 -0.1378039,0.14354 -0.2070313,0.31259 -0.2070313,0.50781 0,0.20097 0.069227,0.3761 0.2070313,0.52539 0.1435456,0.14355 0.314661,0.21484 0.515625,0.21484 h 0.7421875 v 8.51954 H 7.0136719 c -0.2009639,0 -0.3740325,0.0734 -0.5175781,0.22265 -0.1378038,0.14355 -0.2070313,0.31662 -0.2070313,0.51758 0,0.19523 0.069227,0.36427 0.2070313,0.50781 0.1435456,0.14354 0.3166142,0.21485 0.5175781,0.21485 h 2.7636719 c 0.4248952,0 0.8097872,-0.10799 1.1542972,-0.32618 0.344509,-0.22393 0.60923,-0.52119 0.792968,-0.88867 l 1.4375,-2.85937 c 0.287091,-0.55696 0.431641,-1.09871 0.431641,-1.62696 0,-0.56844 -0.136385,-1.11421 -0.40625,-1.63671 l -1.429688,-2.89258 c -0.166512,-0.33303 -0.427209,-0.6181 -0.783203,-0.85352 -0.350251,-0.23516 -0.710765,-0.35533 -1.083984,-0.36133 z m 18.9257811,0 c -0.367477,0 -0.607819,0.18123 -0.722656,0.54297 l -2.927734,9.89453 c -0.02871,0.0919 -0.04297,0.18146 -0.04297,0.26758 0,0.20671 0.06728,0.38185 0.205078,0.52539 0.137804,0.14354 0.312943,0.21485 0.525391,0.21485 0.149287,0 0.287742,-0.0388 0.414062,-0.11914 0.126319,-0.0861 0.197617,-0.17572 0.214844,-0.26758 l 0.638672,-2.10156 h 3.298828 l 0.583984,1.96289 c 0.103353,0.35024 0.34565,0.52539 0.72461,0.52539 0.177996,0 0.334852,-0.0692 0.472656,-0.20704 0.137804,-0.14354 0.207031,-0.31465 0.207031,-0.51562 0,-0.0689 -0.01024,-0.1402 -0.0332,-0.21484 l -2.886719,-10.05274 c -0.09187,-0.30432 -0.315882,-0.45508 -0.671875,-0.45508 z m 12.984375,0 c -0.200964,0 -0.374032,0.0713 -0.517578,0.21485 -0.137803,0.14354 -0.207031,0.31868 -0.207031,0.52539 v 2.66211 l 2.929687,7.5 c 0.143546,0.36173 0.383888,0.54297 0.722657,0.54297 0.321541,0 0.557743,-0.18124 0.707031,-0.54297 l 2.945312,-7.5 v -2.66211 c 0,-0.20671 -0.07325,-0.38185 -0.216797,-0.52539 -0.137804,-0.14355 -0.306848,-0.21485 -0.507812,-0.21485 -0.200964,0 -0.37208,0.0713 -0.515625,0.21485 -0.137804,0.14354 -0.207031,0.31868 -0.207031,0.52539 v 2.37695 l -2.205078,5.59766 -2.205079,-5.61524 v -2.35937 c 0,-0.20671 -0.0713,-0.38185 -0.214843,-0.52539 -0.137804,-0.14355 -0.306849,-0.21485 -0.507813,-0.21485 z m 15.902344,0 c -0.200964,0 -0.374032,0.0713 -0.517578,0.21485 -0.137804,0.14354 -0.207032,0.31868 -0.207031,0.52539 -10e-7,0.19522 0.06923,0.36426 0.207031,0.50781 0.143546,0.14355 0.316614,0.21484 0.517578,0.21484 H 57.0625 v 8.53516 h -2.220703 c -0.200964,0 -0.374032,0.0732 -0.517578,0.2168 -0.137804,0.1378 -0.207032,0.30685 -0.207031,0.50781 -10e-7,0.20097 0.06923,0.37208 0.207031,0.51562 0.143546,0.13781 0.316614,0.20704 0.517578,0.20704 h 5.855469 c 0.195222,0 0.366219,-0.0692 0.509765,-0.20704 0.143546,-0.14354 0.214844,-0.31465 0.214844,-0.51562 0,-0.20096 -0.0713,-0.37001 -0.214844,-0.50781 -0.137804,-0.14355 -0.308801,-0.2168 -0.509765,-0.2168 h -2.1875 v -8.53516 h 2.1875 c 0.195222,0 0.366219,-0.0713 0.509765,-0.21484 0.143546,-0.14929 0.214844,-0.32442 0.214844,-0.52539 0,-0.19522 -0.07532,-0.36427 -0.224609,-0.50781 -0.143546,-0.14355 -0.31052,-0.21485 -0.5,-0.21485 z m 15.935547,0 c -0.200964,0 -0.37208,0.0713 -0.515625,0.21485 -0.137804,0.14354 -0.207031,0.31259 -0.207031,0.50781 0,0.20097 0.06923,0.3761 0.207031,0.52539 0.143545,0.14355 0.314661,0.21484 0.515625,0.21484 h 0.742187 v 8.51954 h -0.757812 c -0.200964,0 -0.374032,0.0734 -0.517578,0.22265 -0.137804,0.14355 -0.207032,0.31662 -0.207032,0.51758 0,0.19523 0.06923,0.36427 0.207032,0.50781 0.143546,0.14354 0.316614,0.21485 0.517578,0.21485 h 2.763672 c 0.424895,0 0.809787,-0.10799 1.154297,-0.32618 0.344509,-0.22393 0.60923,-0.52119 0.792968,-0.88867 l 1.4375,-2.85937 c 0.287092,-0.55696 0.431641,-1.09871 0.431641,-1.62696 0,-0.56844 -0.136385,-1.11421 -0.40625,-1.63671 l -1.429688,-2.89258 c -0.166512,-0.33303 -0.427209,-0.6181 -0.783203,-0.85352 -0.350251,-0.23516 -0.710765,-0.35533 -1.083984,-0.36133 z M 9.21875,265.99023 h 0.4726562 c 0.3502518,0 0.6027828,0.14662 0.7578128,0.43946 l 1.482422,2.94531 c 0.143545,0.28135 0.214843,0.58068 0.214843,0.89648 0,0.25264 -0.08958,0.56624 -0.267578,0.93946 l -1.429687,2.84179 c -0.160772,0.3158 -0.401114,0.47266 -0.7226565,0.47266 H 9.21875 Z m 63.748047,0 h 0.472656 c 0.350251,0 0.602783,0.14662 0.757813,0.43946 l 1.482422,2.94531 c 0.143545,0.28135 0.214843,0.58068 0.214843,0.89648 0,0.25264 -0.08958,0.56624 -0.267578,0.93946 l -1.429687,2.84179 c -0.160772,0.3158 -0.401115,0.47266 -0.722657,0.47266 h -0.507812 z m -47.027344,1.88672 1.197266,4.14258 h -2.4375 z m -19.6152342,12.5625 v 10.72266 c -10e-8,0.20096 0.071298,0.37208 0.2148437,0.51562 0.1435457,0.13781 0.3186849,0.20704 0.5253906,0.20704 0.2009639,0 0.3700087,-0.0692 0.5078125,-0.20704 0.1435456,-0.14354 0.2167969,-0.31466 0.2167969,-0.51562 v -3.65234 h 3.6679685 c 0.59715,0 1.108308,-0.21182 1.533203,-0.63672 0.424895,-0.4249 0.636719,-0.93606 0.636719,-1.53321 v -2.71289 c 0,-0.59714 -0.213894,-1.11233 -0.644531,-1.54297 -0.424895,-0.43063 -0.933983,-0.64453 -1.525391,-0.64453 z m 15.9375002,0 v 11.44532 h 6.5625 c 0.200963,0 0.372079,-0.0692 0.515625,-0.20704 0.149287,-0.14354 0.224609,-0.31466 0.224609,-0.51562 0,-0.20097 -0.0713,-0.37001 -0.214844,-0.50781 -0.143546,-0.14355 -0.31259,-0.2168 -0.507812,-0.2168 h -5.134766 v -3.54883 h 2.205078 c 0.200964,0 0.371963,-0.0713 0.509766,-0.21484 0.143546,-0.14355 0.214844,-0.31869 0.214844,-0.52539 0,-0.19522 -0.0713,-0.36427 -0.214844,-0.50782 -0.143545,-0.14354 -0.314544,-0.21484 -0.509766,-0.21484 h -2.205078 v -3.52344 h 5.117188 c 0.200963,0 0.372079,-0.0713 0.515625,-0.21484 0.149287,-0.14355 0.224609,-0.31259 0.224609,-0.50781 0,-0.20096 -0.07532,-0.37403 -0.224609,-0.51758 -0.143546,-0.14929 -0.314662,-0.22266 -0.515625,-0.22266 z m 31.873047,0 v 11.44532 h 6.5625 c 0.200964,0 0.374032,-0.0692 0.517578,-0.20704 0.149288,-0.14354 0.224609,-0.31466 0.224609,-0.51562 0,-0.20097 -0.07325,-0.37001 -0.216797,-0.50781 -0.143545,-0.14355 -0.31259,-0.2168 -0.507812,-0.2168 h -5.132813 v -3.54883 h 2.205078 c 0.200964,0 0.370009,-0.0713 0.507813,-0.21484 0.143545,-0.14355 0.214844,-0.31869 0.214844,-0.52539 0,-0.19522 -0.0713,-0.36427 -0.214844,-0.50782 -0.143546,-0.14354 -0.312591,-0.21484 -0.507813,-0.21484 h -2.205078 v -3.52344 h 5.115235 c 0.200964,0 0.374032,-0.0713 0.517578,-0.21484 0.149288,-0.14355 0.224609,-0.31259 0.224609,-0.50781 0,-0.20096 -0.07532,-0.37403 -0.224609,-0.51758 -0.143546,-0.14929 -0.316614,-0.22266 -0.517578,-0.22266 z m 15.955078,0 v 10.72266 c 0,0.20096 0.06923,0.37208 0.207031,0.51562 0.143545,0.13781 0.314661,0.20704 0.515625,0.20704 0.200964,0 0.374032,-0.0692 0.517578,-0.20704 0.149287,-0.14354 0.222656,-0.31466 0.222656,-0.51562 v -5.52149 h 1.042969 l 3.402344,5.85743 c 0.149287,0.25838 0.367205,0.38672 0.654297,0.38672 0.18948,0 0.358525,-0.0692 0.507812,-0.20704 0.149288,-0.14354 0.22461,-0.31259 0.22461,-0.50781 0,-0.14928 -0.0468,-0.29798 -0.138672,-0.44726 l -2.962891,-5.08204 h 0.921875 c 0.59715,0 1.108308,-0.21182 1.533203,-0.63671 0.424895,-0.43064 0.636719,-0.9479 0.636719,-1.55079 v -0.82617 c 0,-0.59714 -0.213895,-1.11233 -0.644531,-1.54297 -0.424896,-0.43063 -0.933983,-0.64453 -1.525391,-0.64453 z m 17.554687,0 c -0.453604,0 -0.840567,0.16502 -1.162109,0.49805 C 86.16088,281.26478 86,281.6537 86,282.10156 c 0,0.3847 0.126266,0.73912 0.378906,1.06641 l 5.357422,6.86523 c 0.07464,0.0919 0.111328,0.16721 0.111328,0.22461 0,0.12058 -0.07739,0.17969 -0.232422,0.17969 h -3.599609 c -0.160771,0 -0.295202,-0.0509 -0.404297,-0.1543 -0.103353,-0.10335 -0.15625,-0.23364 -0.15625,-0.38867 0,-0.18948 -0.06727,-0.35243 -0.205078,-0.49023 -0.137804,-0.14355 -0.304778,-0.21485 -0.5,-0.21485 -0.505281,0 -0.757813,0.26886 -0.757812,0.8086 -10e-7,0.47082 0.189398,0.90459 0.568359,1.30078 0.384702,0.39044 0.834798,0.58594 1.351562,0.58594 h 3.902344 c 0.384703,0 0.730957,-0.16295 1.041016,-0.49024 0.3158,-0.32728 0.474609,-0.70608 0.474609,-1.13672 0,-0.37896 -0.13029,-0.73533 -0.388672,-1.06836 l -5.365234,-6.86523 c -0.07464,-0.0919 -0.111328,-0.17134 -0.111328,-0.24024 0,-0.10909 0.08556,-0.16406 0.257812,-0.16406 h 3.574219 c 0.287091,0 0.470396,0.15272 0.550781,0.45703 0.08613,0.30432 0.175709,0.51408 0.267578,0.62891 0.09187,0.1091 0.260914,0.16211 0.507813,0.16211 0.177997,0 0.338876,-0.0713 0.482422,-0.21485 0.149287,-0.14354 0.224609,-0.31868 0.224609,-0.52539 0,-0.55121 -0.207682,-1.01959 -0.621094,-1.40429 -0.407669,-0.39044 -0.839482,-0.58399 -1.298828,-0.58399 z m 17.935549,0 c -0.79238,0 -1.36874,0.35235 -1.73047,1.0586 l -1.60156,3.24609 c -0.21245,0.42489 -0.31836,0.90546 -0.31836,1.43945 0,0.53399 0.10591,1.01054 0.31836,1.42969 l 1.60156,3.21289 c 0.15503,0.30432 0.38513,0.55685 0.68945,0.75781 0.31006,0.20097 0.65632,0.30079 1.04102,0.30079 0.8096,0 1.38389,-0.35235 1.72265,-1.0586 l 1.59375,-3.21289 c 0.22394,-0.44786 0.33594,-0.92441 0.33594,-1.42969 0,-0.51676 -0.112,-0.99733 -0.33594,-1.43945 l -1.59375,-3.24609 c -0.34451,-0.70625 -0.9188,-1.0586 -1.72265,-1.0586 z m 12.30273,0 v 10.72266 c 0,0.20096 0.0692,0.37208 0.20703,0.51562 0.14355,0.13781 0.31662,0.20704 0.51758,0.20704 0.20097,0 0.37001,-0.0692 0.50781,-0.20704 0.14354,-0.14354 0.21485,-0.31466 0.21485,-0.51562 v -8.16602 l 3.89258,8.88868 h 1.94726 v -10.70508 c 0,-0.2067 -0.0713,-0.38185 -0.21484,-0.52539 -0.1378,-0.14355 -0.3088,-0.21485 -0.50977,-0.21485 -0.20096,0 -0.37609,0.0734 -0.52539,0.22266 -0.14354,0.14355 -0.21484,0.31662 -0.21484,0.51758 v 8.13086 l -3.90039,-8.8711 z m -79.701169,0.0156 v 1.95508 c 0,0.20096 0.06727,0.37403 0.205078,0.51757 0.143545,0.13781 0.316614,0.20704 0.517578,0.20704 0.200964,0 0.370009,-0.0692 0.507812,-0.20704 0.143546,-0.14354 0.214844,-0.31661 0.214844,-0.51757 v -0.50782 h 1.464844 v 9.25977 c 0,0.20096 0.0713,0.37208 0.214844,0.51562 0.143545,0.13781 0.318684,0.20704 0.52539,0.20704 0.195222,0 0.364267,-0.0692 0.507813,-0.20704 0.143545,-0.14354 0.216797,-0.31466 0.216797,-0.51562 v -9.25977 h 1.46289 v 0.52539 c 0,0.19522 0.07325,0.36427 0.216797,0.50782 0.149287,0.14354 0.324427,0.21679 0.525391,0.21679 0.195222,0 0.364266,-0.0692 0.507812,-0.20703 0.143546,-0.14354 0.214844,-0.31661 0.214844,-0.51758 v -1.97265 z m 67.398439,1.42969 c 0.2067,0 0.35942,0.112 0.45703,0.33593 l 1.51562,3.04883 c 0.14354,0.28135 0.21485,0.58069 0.21485,0.89649 0,0.29857 -0.0713,0.59997 -0.21485,0.90429 l -1.55078,3.08399 c -0.0976,0.18948 -0.23813,0.2832 -0.42187,0.2832 -0.21245,0 -0.35907,-0.0937 -0.43946,-0.2832 l -1.54101,-3.08399 c -0.13781,-0.28709 -0.20703,-0.58849 -0.20703,-0.90429 0,-0.29284 0.0692,-0.59217 0.20703,-0.89649 l 1.49805,-3.04883 c 0.11483,-0.22393 0.27571,-0.33593 0.48242,-0.33593 z m -97.7910175,0.0176 h 3.6679685 c 0.195222,0 0.364267,0.0733 0.507813,0.2168 0.143545,0.13781 0.216797,0.30685 0.216797,0.50781 v 2.71289 c 0,0.20096 -0.07325,0.37208 -0.216797,0.51563 -0.143546,0.13781 -0.312591,0.20703 -0.507813,0.20703 H 7.7890625 Z m 63.7480465,0 h 3.667969 c 0.200964,0 0.370009,0.0733 0.507813,0.2168 0.143545,0.13781 0.216797,0.30685 0.216797,0.50781 v 0.84375 c 0,0.20097 -0.07325,0.37208 -0.216797,0.51563 -0.137804,0.1378 -0.306849,0.20703 -0.507813,0.20703 h -3.667969 z" />
    </g>
  </g>
</svg>
